<?xml version="1.0" standalone="no"?>
<!DOCTYPE svg PUBLIC "-//W3C//DTD SVG 1.1//EN" "http://www.w3.org/Graphics/SVG/1.1/DTD/svg11.dtd" >
<svg xmlns="http://www.w3.org/2000/svg" xmlns:xlink="http://www.w3.org/1999/xlink" version="1.1">
<metadata>
Created by FontForge 20170924 at Thu Nov 19 11:53:38 2015
 By www-data
Copyright (c) Milos Mitrovic, 2015. All rights reserved.
</metadata>
<defs>
<font id="BambinoHS-Light" horiz-adv-x="585" >
  <font-face 
    font-family="Bambino H&#38;S"
    font-weight="300"
    font-stretch="normal"
    units-per-em="1000"
    panose-1="0 0 0 0 0 0 0 0 0 0"
    ascent="800"
    descent="-200"
    x-height="540"
    cap-height="720"
    bbox="-144 -297 1258 1192"
    underline-thickness="50"
    underline-position="-100"
    stemh="50"
    stemv="50"
    unicode-range="U+0020-25CA"
  />
<missing-glyph horiz-adv-x="522" 
d="M348 -141v34h-174v-34h73l-73 -50v-34h174v34h-107l73 50h34zM348 643v34h-173v-34h68v-39h-69v-34h174v34h-69v39h69zM279 469v73h-105v-108h174v35h-69zM209 507h34v-38h-34v38zM348 371v35h-174v-35h69v-38h-69v-35h105v73h69zM348 239v104h-35v-69h-139v-35h174z
M348 98v118h-105v-59h36v24h34v-49h-104v84h-35v-118h174zM209 1h104v-50h-104v50zM348 -83v118h-174v-118h174zM97 747h331v-1044h-331v1044z" />
    <glyph glyph-name=".notdef" horiz-adv-x="522" 
d="M348 -141v34h-174v-34h73l-73 -50v-34h174v34h-107l73 50h34zM348 643v34h-173v-34h68v-39h-69v-34h174v34h-69v39h69zM279 469v73h-105v-108h174v35h-69zM209 507h34v-38h-34v38zM348 371v35h-174v-35h69v-38h-69v-35h105v73h69zM348 239v104h-35v-69h-139v-35h174z
M348 98v118h-105v-59h36v24h34v-49h-104v84h-35v-118h174zM209 1h104v-50h-104v50zM348 -83v118h-174v-118h174zM97 747h331v-1044h-331v1044z" />
    <glyph glyph-name="space" unicode=" " horiz-adv-x="324" 
 />
    <glyph glyph-name="exclam" unicode="!" horiz-adv-x="216" 
d="M152 86v-86h-86v86h86zM138 720l-9 -544h-42l-9 544h60z" />
    <glyph glyph-name="quotedbl" unicode="&#x22;" horiz-adv-x="304" 
d="M256 720l-9 -270h-42l-9 270h60zM108 720l-9 -270h-41l-9 270h59z" />
    <glyph glyph-name="numbersign" unicode="#" horiz-adv-x="725" 
d="M469 461h-167l-42 -201h168zM574 720l-44 -210h118v-49h-128l-42 -201h120v-50h-130l-44 -210h-51l44 210h-167l-44 -210h-51l44 210h-122v50h133l41 201h-123v49h134l43 210h51l-44 -210h168l43 210h51z" />
    <glyph glyph-name="dollar" unicode="$" horiz-adv-x="630" 
d="M356 399c114 -25 224 -53 223 -210c-1 -110 -94 -206 -235 -215v-64h-51v64c-128 11 -207 94 -243 179l41 25c25 -57 85 -155 229 -155c123 0 207 72 207 172c1 108 -63 134 -246 171c-113 23 -204 60 -203 175c1 113 87 197 215 205v64h51v-64c93 -8 168 -56 201 -145
l-38 -24c-22 55 -66 120 -187 120c-126 0 -191 -61 -191 -153c-1 -98 67 -111 227 -145z" />
    <glyph glyph-name="percent" unicode="%" horiz-adv-x="765" 
d="M563 222c-52 0 -99 -47 -99 -99s47 -99 99 -99c50 0 99 47 99 99s-49 99 -99 99zM563 270c75 0 148 -72 148 -148c0 -74 -73 -149 -148 -149c-76 0 -149 75 -149 149c0 76 73 148 149 148zM203 698c-51 0 -99 -47 -99 -98s48 -99 99 -99c50 0 99 48 99 99s-49 98 -99 98z
M639 720l-455 -720h-58l456 720h57zM203 747c75 0 148 -72 148 -148c0 -74 -73 -149 -148 -149c-76 0 -149 75 -149 149c0 76 73 148 149 148z" />
    <glyph glyph-name="ampersand" unicode="&#x26;" horiz-adv-x="675" 
d="M444 98l42 39c-95 96 -170 166 -228 218c-142 -85 -156 -142 -156 -191c0 -88 62 -141 163 -141c75 0 136 36 179 75zM411 585c0 72 -53 113 -131 113c-79 0 -133 -47 -133 -116c0 -72 46 -100 119 -168c111 72 145 122 145 171zM522 171l81 77l33 -35l-80 -77l127 -136
h-66l-97 102l-41 -38c-51 -47 -122 -91 -214 -91c-129 0 -214 76 -214 191c0 71 25 135 171 224c-83 73 -126 111 -126 194c0 95 77 165 184 165c110 0 181 -61 181 -161c0 -64 -35 -120 -159 -204c39 -35 118 -108 220 -211z" />
    <glyph glyph-name="quoteright" unicode="&#x2019;" horiz-adv-x="252" 
d="M172 720v-86c0 -57 -17 -90 -44 -120l-41 36c20 20 34 35 35 84h-36v86h86z" />
    <glyph glyph-name="parenleft" unicode="(" horiz-adv-x="337" 
d="M215 747l42 -29c-78 -108 -126 -249 -126 -398s48 -290 126 -398l-42 -30c-84 116 -135 267 -135 428c0 160 51 312 135 427z" />
    <glyph glyph-name="parenright" unicode=")" horiz-adv-x="337" 
d="M80 718l42 29c83 -115 135 -267 135 -427c0 -161 -52 -312 -135 -428l-42 30c78 108 126 249 126 398s-48 290 -126 398z" />
    <glyph glyph-name="asterisk" unicode="*" horiz-adv-x="432" 
d="M235 720v-112l103 36l12 -34l-104 -36l64 -86l-29 -22l-65 88l-64 -88l-29 22l64 86l-104 36l12 34l103 -36v112h37z" />
    <glyph glyph-name="plus" unicode="+" 
d="M509 323v-50h-190v-192h-51v192h-191v50h191v190h51v-190h190z" />
    <glyph glyph-name="comma" unicode="," horiz-adv-x="263" 
d="M172 86v-86c0 -56 -17 -90 -44 -120l-41 36c20 20 34 35 35 84h-36v86h86z" />
    <glyph glyph-name="hyphen" unicode="-" horiz-adv-x="477" 
d="M401 323v-50h-324v50h324z" />
    <glyph glyph-name="period" unicode="." horiz-adv-x="263" 
d="M174 86v-86h-86v86h86z" />
    <glyph glyph-name="slash" unicode="/" horiz-adv-x="441" 
d="M357 720l-221 -720h-52l222 720h51z" />
    <glyph glyph-name="zero" unicode="0" horiz-adv-x="624" 
d="M312 697c-65 0 -112 -30 -148 -89c-37 -62 -57 -150 -57 -248s20 -186 57 -248c36 -59 83 -89 148 -89c66 0 113 30 148 89c38 62 57 150 57 248s-19 186 -57 248c-35 59 -82 89 -148 89zM312 747c165 0 255 -174 255 -387s-90 -387 -255 -387s-255 174 -255 387
s90 387 255 387z" />
    <glyph glyph-name="one" unicode="1" horiz-adv-x="378" 
d="M287 720v-720h-50v641l-142 -165l-36 33l178 211h50z" />
    <glyph glyph-name="two" unicode="2" horiz-adv-x="572" 
d="M123 536l-49 7c0 116 90 204 215 204s215 -76 215 -193c0 -75 -26 -124 -94 -202l-266 -302h360v-50h-430v50l296 333c64 71 84 107 84 171c0 89 -67 143 -165 143c-97 0 -166 -63 -166 -161z" />
    <glyph glyph-name="three" unicode="3" horiz-adv-x="576" 
d="M112 527l-51 9c0 117 91 211 225 211c141 0 223 -94 223 -211c0 -72 -54 -141 -123 -166c87 -26 136 -90 136 -172c0 -125 -91 -225 -232 -225c-138 0 -228 86 -236 211l50 9c4 -106 81 -170 182 -170c108 0 186 70 186 172c0 107 -102 149 -238 149l1 50
c138 0 223 55 223 151c0 79 -63 152 -172 152c-101 0 -174 -60 -174 -170z" />
    <glyph glyph-name="four" unicode="4" 
d="M368 720l-261 -490h243v170h51v-170h138v-50h-138v-180h-51v180h-300v50l263 490h55z" />
    <glyph glyph-name="five" unicode="5" horiz-adv-x="606" 
d="M500 720v-50h-326l-35 -255c0 -2 48 69 178 69c169 0 243 -138 243 -250c0 -144 -111 -261 -251 -261c-144 0 -250 108 -250 261h51c0 -109 69 -211 199 -211c115 0 200 99 200 214c0 107 -81 197 -197 197c-138 0 -185 -105 -185 -105h-51l54 391h370z" />
    <glyph glyph-name="six" unicode="6" horiz-adv-x="615" 
d="M315 447c-114 0 -210 -92 -210 -212c0 -119 90 -212 210 -212c105 0 200 93 200 212c0 120 -86 212 -200 212zM483 747l6 -50c-28 -1 -126 -4 -197 -46c-90 -53 -143 -137 -170 -246c28 36 92 93 192 93c152 0 251 -118 251 -263c0 -144 -117 -262 -251 -262
c-145 0 -259 109 -259 271v1c0 238 88 355 166 420c87 72 215 82 262 82z" />
    <glyph glyph-name="seven" unicode="7" horiz-adv-x="579" 
d="M526 670l-338 -670h-58l336 670h-398v50h458v-50z" />
    <glyph glyph-name="eight" unicode="8" horiz-adv-x="609" 
d="M305 356c-124 0 -198 -74 -198 -166c0 -93 74 -167 198 -167c123 0 197 74 197 167c0 92 -74 166 -197 166zM305 697c-112 0 -176 -64 -176 -145c0 -80 64 -145 176 -145s176 65 176 145c0 81 -64 145 -176 145zM305 747c139 0 226 -87 226 -195c0 -72 -39 -135 -97 -169
c70 -36 119 -109 119 -193c0 -120 -98 -217 -248 -217c-151 0 -248 97 -248 217c0 84 48 157 119 193c-58 34 -98 97 -98 169c0 108 88 195 227 195z" />
    <glyph glyph-name="nine" unicode="9" horiz-adv-x="615" 
d="M297 272c114 0 210 93 210 212s-90 212 -210 212c-105 0 -200 -93 -200 -212s86 -212 200 -212zM129 -28l-6 51c28 0 126 3 197 45c90 54 144 137 171 246c-29 -36 -93 -93 -193 -93c-152 0 -251 118 -251 263c0 144 117 262 251 262c145 0 259 -109 259 -271v-1
c0 -238 -88 -355 -166 -420c-87 -72 -215 -82 -262 -82z" />
    <glyph glyph-name="colon" unicode=":" horiz-adv-x="263" 
d="M174 540v-86h-86v86h86zM174 86v-86h-86v86h86z" />
    <glyph glyph-name="semicolon" unicode=";" horiz-adv-x="263" 
d="M172 540v-86h-86v86h86zM172 86v-86c0 -56 -17 -90 -44 -120l-41 36c20 20 34 35 35 84h-36v86h86z" />
    <glyph glyph-name="less" unicode="&#x3c;" horiz-adv-x="711" 
d="M641 18l-571 227v50l571 230v-57l-501 -197l501 -198v-55z" />
    <glyph glyph-name="equal" unicode="=" horiz-adv-x="639" 
d="M563 215v-50h-486v50h486zM563 431v-50h-486v50h486z" />
    <glyph glyph-name="greater" unicode="&#x3e;" horiz-adv-x="711" 
d="M641 295v-50l-571 -227v55l501 198l-501 197v57z" />
    <glyph glyph-name="question" unicode="?" horiz-adv-x="546" 
d="M315 86v-86h-86v86h86zM101 518l-49 6c0 127 99 223 221 223s221 -99 221 -220c0 -91 -49 -150 -135 -196c-11 -6 -66 -38 -62 -136h-50c-3 136 82 178 103 189c60 33 94 79 94 143c0 93 -77 171 -171 171s-172 -78 -172 -180z" />
    <glyph glyph-name="at" unicode="@" horiz-adv-x="1143" 
d="M726 119v212c-8 15 -17 28 -28 40c-35 38 -81 57 -135 57c-112 0 -203 -90 -203 -203c0 -112 91 -203 203 -203c72 0 128 34 163 97zM488 -252l-10 -45c-244 45 -431 267 -431 524c0 289 235 520 524 520s524 -231 524 -520c0 -134 -76 -256 -205 -256
c-69 0 -122 21 -151 79c-42 -48 -104 -79 -176 -79c-140 0 -253 115 -253 254c0 140 113 254 253 254c65 0 122 -25 163 -66v37h51v-346c0 -9 2 -82 113 -82c99 0 156 80 156 205c0 262 -213 470 -475 470s-474 -208 -474 -470c0 -234 169 -439 391 -479z" />
    <glyph glyph-name="A" unicode="A" horiz-adv-x="705" 
d="M353 653l-186 -430h372zM690 0h-55l-75 173h-416l-74 -173h-55l313 720h50z" />
    <glyph glyph-name="B" unicode="B" horiz-adv-x="619" 
d="M398 345h-258v-295h234c79 0 145 71 145 151c0 65 -55 144 -121 144zM334 671h-194v-277h248c66 0 120 70 120 135c0 80 -65 141 -144 141h-30v1zM90 720h274c115 0 194 -94 194 -191c0 -63 -32 -120 -92 -155c66 -33 102 -110 102 -173c0 -108 -87 -201 -194 -201h-284
v720z" />
    <glyph glyph-name="C" unicode="C" horiz-adv-x="743" 
d="M676 122l42 -27c-79 -88 -174 -122 -281 -122c-214 0 -387 174 -387 387s173 387 387 387c107 0 202 -34 281 -122l-42 -26c-70 79 -146 99 -239 99c-186 0 -337 -152 -337 -338s151 -337 337 -337c93 0 169 19 239 99z" />
    <glyph glyph-name="D" unicode="D" horiz-adv-x="701" 
d="M289 670h-148v-620h148c171 0 311 139 311 310s-140 310 -311 310zM90 720h199c199 0 360 -161 360 -360s-161 -360 -360 -360h-199v720z" />
    <glyph glyph-name="E" unicode="E" horiz-adv-x="565" 
d="M520 720v-50h-379v-285h328v-50h-328v-285h379v-50h-430v720h430z" />
    <glyph glyph-name="F" unicode="F" horiz-adv-x="557" 
d="M522 720v-50h-382v-285h328v-50h-328v-335h-50v720h432z" />
    <glyph glyph-name="G" unicode="G" horiz-adv-x="793" 
d="M434 311v51h299v-248c-52 -73 -151 -141 -296 -141c-215 0 -387 174 -387 387s172 387 387 387c102 0 197 -40 266 -111l-37 -30c-62 65 -143 91 -229 91c-187 0 -337 -151 -337 -337s150 -337 337 -337c121 0 210 55 245 112v176h-248z" />
    <glyph glyph-name="H" unicode="H" horiz-adv-x="713" 
d="M623 720v-720h-51v335h-432v-335h-50v720h50v-335h432v335h51z" />
    <glyph glyph-name="I" unicode="I" horiz-adv-x="231" 
d="M141 720v-720h-51v720h51z" />
    <glyph glyph-name="J" unicode="J" horiz-adv-x="493" 
d="M418 720v-528c0 -119 -99 -219 -220 -219c-58 0 -121 23 -157 70l38 30c30 -38 75 -50 120 -50c94 0 169 74 169 169v528h50z" />
    <glyph glyph-name="K" unicode="K" horiz-adv-x="593" 
d="M573 720l-387 -360l387 -360h-68l-364 338v-338h-51v720h51v-337l364 337h68z" />
    <glyph glyph-name="L" unicode="L" horiz-adv-x="541" 
d="M140 720v-670h371v-50h-421v720h50z" />
    <glyph glyph-name="M" unicode="M" horiz-adv-x="963" 
d="M775 720l138 -720h-52l-120 624l-234 -624h-51l-235 624l-120 -624h-51l140 720h50l242 -646l243 646h50z" />
    <glyph glyph-name="N" unicode="N" horiz-adv-x="735" 
d="M141 720l453 -631v631h51v-720h-51l-453 631v-631h-51v720h51z" />
    <glyph glyph-name="O" unicode="O" horiz-adv-x="874" 
d="M437 697c-186 0 -337 -152 -337 -337s151 -337 337 -337c185 0 336 152 336 337s-151 337 -336 337zM437 747c213 0 387 -174 387 -387s-174 -387 -387 -387c-214 0 -387 174 -387 387s173 387 387 387z" />
    <glyph glyph-name="P" unicode="P" horiz-adv-x="575" 
d="M303 670h-162v-350h161c114 0 193 79 193 175s-78 175 -192 175zM90 720h213c142 0 242 -102 242 -225c0 -124 -101 -225 -243 -225h-161v-270h-51v720z" />
    <glyph glyph-name="Q" unicode="Q" horiz-adv-x="881" 
d="M562 271l131 -131c51 59 81 136 81 220c0 186 -150 337 -337 337c-186 0 -336 -151 -336 -337s150 -337 336 -337c85 0 162 31 221 81l-167 167h71zM761 0l-68 69c-68 -59 -157 -96 -256 -96c-213 0 -387 174 -387 387s174 387 387 387c215 0 387 -174 387 -387
c0 -98 -36 -187 -96 -256l104 -104h-71z" />
    <glyph glyph-name="R" unicode="R" horiz-adv-x="606" 
d="M303 670h-162v-350h161c114 0 193 79 193 175s-78 175 -192 175zM545 495c0 -108 -77 -198 -190 -220l182 -275h-61l-177 270h-158v-270h-51v720h213c142 0 242 -102 242 -225z" />
    <glyph glyph-name="S" unicode="S" horiz-adv-x="625" 
d="M276 366c-113 23 -204 60 -203 175c1 120 97 206 238 206c107 0 193 -48 229 -146l-38 -24c-22 55 -66 120 -187 120c-126 0 -191 -61 -191 -153c-1 -98 67 -111 227 -145c114 -25 224 -53 223 -210c-1 -116 -104 -216 -259 -216c-144 0 -232 89 -270 180l41 25
c25 -57 85 -155 229 -155c123 0 207 72 207 172c1 108 -63 134 -246 171z" />
    <glyph glyph-name="T" unicode="T" horiz-adv-x="568" 
d="M543 720v-50h-235v-670h-50v670h-233v50h518z" />
    <glyph glyph-name="U" unicode="U" horiz-adv-x="684" 
d="M619 720v-474c0 -162 -133 -273 -277 -273s-277 111 -277 273v474h50v-474c0 -138 107 -223 227 -223s227 85 227 223v474h50z" />
    <glyph glyph-name="V" unicode="V" horiz-adv-x="658" 
d="M638 720l-284 -720h-50l-284 720h54l255 -643l256 643h53z" />
    <glyph glyph-name="W" unicode="W" horiz-adv-x="1021" 
d="M1001 720l-254 -720h-50l-186 627l-189 -627h-50l-252 720h53l224 -630l188 630h51l186 -630l226 630h53z" />
    <glyph glyph-name="X" unicode="X" horiz-adv-x="675" 
d="M635 720l-265 -360l266 -360h-64l-234 317l-234 -317h-64l265 360l-266 360h64l235 -317l234 317h63z" />
    <glyph glyph-name="Y" unicode="Y" horiz-adv-x="609" 
d="M589 720l-261 -387v-333h-50v336l-258 384h59l225 -335l225 335h60z" />
    <glyph glyph-name="Z" unicode="Z" horiz-adv-x="635" 
d="M576 670l-456 -620h456v-50h-517v50l456 620h-456v50h517v-50z" />
    <glyph glyph-name="bracketleft" unicode="[" horiz-adv-x="324" 
d="M248 697h-121v-795h121v-51h-171v896h171v-50z" />
    <glyph glyph-name="backslash" unicode="\" horiz-adv-x="441" 
d="M131 720l222 -720h-52l-222 720h52z" />
    <glyph glyph-name="bracketright" unicode="]" horiz-adv-x="324" 
d="M197 -98v795h-120v50h171v-896h-171v51h120z" />
    <glyph glyph-name="asciicircum" unicode="^" horiz-adv-x="531" 
d="M492 450h-56l-170 231l-170 -230h-56l199 269h54z" />
    <glyph glyph-name="underscore" unicode="_" horiz-adv-x="576" 
d="M527 -36v-50h-477v50h477z" />
    <glyph glyph-name="quoteleft" unicode="&#x2018;" horiz-adv-x="252" 
d="M80 542v86c0 56 17 90 44 120l41 -36c-20 -20 -33 -35 -35 -84h36v-86h-86z" />
    <glyph glyph-name="a" unicode="a" horiz-adv-x="623" 
d="M268 23c123 0 238 74 236 151c-1 22 0 61 -2 86c2 1 -98 23 -188 27c-135 5 -211 -38 -211 -128c0 -97 83 -136 165 -136zM554 224v-224h-51v72c-22 -38 -137 -99 -234 -99c-122 0 -217 65 -217 180c0 98 58 194 267 185c82 -4 151 -20 182 -27c-8 86 -40 206 -202 206
c-85 0 -159 -37 -189 -60l-26 41c63 47 151 69 206 69c114 0 179 -39 216 -96c39 -61 48 -140 48 -247z" />
    <glyph glyph-name="b" unicode="b" horiz-adv-x="652" 
d="M322 516c-105 0 -169 -61 -196 -115v-264c22 -52 81 -114 196 -114c161 0 228 133 228 246c0 127 -76 247 -228 247zM126 720v-242c48 57 120 88 196 88c176 0 278 -129 278 -294c0 -174 -111 -299 -278 -299c-86 0 -159 36 -196 82v-55h-50v720h50z" />
    <glyph glyph-name="c" unicode="c" horiz-adv-x="616" 
d="M537 117l42 -25c-59 -81 -133 -119 -231 -119c-163 0 -298 132 -298 297s135 297 298 297c98 0 173 -38 231 -119l-42 -25c-29 42 -88 94 -186 94c-146 0 -250 -107 -250 -247c0 -136 104 -247 250 -247c98 0 157 52 186 94z" />
    <glyph glyph-name="d" unicode="d" horiz-adv-x="646" 
d="M327 516c-152 0 -228 -120 -228 -247c0 -113 72 -246 219 -246c115 0 183 62 205 114v264c-27 54 -91 115 -196 115zM523 478v242h50v-720h-50v55c-37 -46 -119 -82 -205 -82c-157 0 -269 125 -269 299c0 165 102 294 278 294c76 0 148 -31 196 -88z" />
    <glyph glyph-name="e" unicode="e" horiz-adv-x="648" 
d="M97 298h457c-3 119 -95 219 -222 219c-142 0 -233 -117 -235 -219zM535 125l46 -23c-54 -72 -135 -129 -247 -129c-169 0 -289 132 -289 297s124 297 284 297c156 0 277 -112 277 -277c0 -20 -2 -31 -4 -42h-505c10 -127 102 -225 237 -225c103 0 168 58 201 102z" />
    <glyph glyph-name="f" unicode="f" horiz-adv-x="306" 
d="M276 738l-12 -47c-87 15 -118 16 -118 -103v-48h101v-50h-101v-490h-51v490h-54v50h54v44c0 113 30 164 118 163c19 0 40 -4 63 -9z" />
    <glyph glyph-name="g" unicode="g" horiz-adv-x="657" 
d="M333 24c97 0 167 39 197 103v277c-33 78 -129 113 -197 113c-148 0 -235 -128 -235 -246c0 -130 87 -247 235 -247zM530 491v49h51v-505c0 -186 -122 -296 -268 -296c-131 0 -204 63 -233 95l40 33c20 -24 79 -78 191 -78c140 0 219 109 219 234v21
c-40 -39 -114 -70 -193 -70c-171 0 -289 129 -289 294c0 174 134 299 287 299c86 0 154 -32 195 -76z" />
    <glyph glyph-name="h" unicode="h" horiz-adv-x="608" 
d="M315 566c111 0 227 -52 227 -281v-285h-51v299c0 146 -60 217 -178 217c-100 0 -187 -65 -187 -186v-330h-50v720h50v-251c21 40 87 97 189 97z" />
    <glyph glyph-name="i" unicode="i" horiz-adv-x="209" 
d="M130 540v-540h-51v540h51zM130 720v-90h-51v90h51z" />
    <glyph glyph-name="j" unicode="j" horiz-adv-x="209" 
d="M130 540v-585c0 -146 -35 -225 -154 -216c-37 3 -55 13 -71 19l19 46c16 -7 28 -12 45 -13c78 -5 110 21 110 164v585h51zM130 720v-90h-51v90h51z" />
    <glyph glyph-name="k" unicode="k" horiz-adv-x="545" 
d="M128 720v-427l309 247h74l-330 -266l330 -274h-74l-309 252v-252h-51v720h51z" />
    <glyph glyph-name="l" unicode="l" horiz-adv-x="209" 
d="M130 720v-720h-51v720h51z" />
    <glyph glyph-name="m" unicode="m" horiz-adv-x="871" 
d="M615 566c128 0 199 -57 199 -249v-317h-51v335c0 110 -35 181 -144 181c-82 0 -149 -61 -149 -154v-362h-51v353c0 92 -42 163 -142 163c-73 0 -151 -61 -151 -154v-362h-50v540h50v-44c21 31 92 70 158 70c79 0 124 -33 162 -99c37 61 102 99 169 99z" />
    <glyph glyph-name="n" unicode="n" horiz-adv-x="621" 
d="M311 566c155 0 240 -75 240 -231v-335h-51v344c0 128 -87 172 -187 172c-82 0 -187 -43 -187 -145v-371h-50v540h50v-48c15 24 88 74 185 74z" />
    <glyph glyph-name="o" unicode="o" horiz-adv-x="693" 
d="M347 517c-136 0 -247 -111 -247 -247s111 -247 247 -247c135 0 246 111 246 247s-111 247 -246 247zM347 567c164 0 297 -132 297 -297s-133 -297 -297 -297c-165 0 -297 132 -297 297s132 297 297 297z" />
    <glyph glyph-name="p" unicode="p" horiz-adv-x="655" 
d="M322 24c147 0 228 120 228 247c0 113 -67 246 -228 246c-115 0 -174 -62 -196 -114v-261c27 -53 91 -118 196 -118zM126 62v-296h-50v774h50v-55c37 46 110 82 196 82c158 0 278 -125 278 -299c0 -165 -117 -294 -278 -294c-76 0 -148 31 -196 88z" />
    <glyph glyph-name="q" unicode="q" horiz-adv-x="653" 
d="M331 24c106 0 169 65 196 118v261c-21 52 -81 114 -196 114c-161 0 -227 -133 -227 -246c0 -127 81 -247 227 -247zM527 -234v296c-47 -57 -119 -88 -196 -88c-161 0 -278 129 -278 294c0 174 121 299 278 299c87 0 160 -36 196 -82v55h51v-774h-51z" />
    <glyph glyph-name="r" unicode="r" horiz-adv-x="419" 
d="M286 566c36 0 67 -4 103 -31l-27 -44c-19 15 -42 25 -87 25c-72 0 -149 -65 -149 -150v-366h-50v540h50v-53c21 31 83 79 160 79z" />
    <glyph glyph-name="s" unicode="s" horiz-adv-x="549" 
d="M45 85l38 30c21 -29 79 -92 189 -92c97 0 178 36 178 127c0 62 -54 90 -184 115c-123 24 -201 55 -201 147c0 89 85 155 202 155c101 0 157 -35 211 -87l-35 -34c-36 37 -84 71 -173 71c-91 0 -155 -41 -155 -102c0 -57 42 -76 156 -101c106 -23 229 -41 229 -167
c0 -93 -81 -174 -228 -174c-98 0 -177 43 -227 112z" />
    <glyph glyph-name="t" unicode="t" horiz-adv-x="354" 
d="M290 43l14 -49c-117 -54 -191 -3 -191 130v366h-72v50h72v180h50v-180h128v-50h-128v-367c0 -104 56 -115 127 -80z" />
    <glyph glyph-name="u" unicode="u" horiz-adv-x="617" 
d="M302 -26c-156 0 -235 84 -235 240v326h50v-335c0 -128 82 -181 182 -181c91 0 192 61 192 145v371h51v-540h-51v59c-10 -24 -93 -85 -189 -85z" />
    <glyph glyph-name="v" unicode="v" horiz-adv-x="542" 
d="M509 540l-213 -540h-50l-214 540h54l185 -465l185 465h53z" />
    <glyph glyph-name="w" unicode="w" horiz-adv-x="893" 
d="M641 77l167 463h53l-195 -540h-50l-169 466l-169 -466h-50l-196 540h54l167 -463l167 463h54z" />
    <glyph glyph-name="x" unicode="x" horiz-adv-x="564" 
d="M530 540l-215 -270l216 -270h-62l-187 233l-186 -233h-62l215 271l-216 269h62l187 -231l186 231h62z" />
    <glyph glyph-name="y" unicode="y" horiz-adv-x="560" 
d="M473 540h54l-265 -656c-36 -88 -69 -145 -145 -145c-23 0 -48 9 -67 25l25 42c12 -9 31 -17 46 -17c50 0 74 64 106 143l30 73l-225 535h54l198 -467z" />
    <glyph glyph-name="z" unicode="z" horiz-adv-x="549" 
d="M504 490l-394 -440h394v-50h-459v50l394 440h-394v50h459v-50z" />
    <glyph glyph-name="braceleft" unicode="{" horiz-adv-x="441" 
d="M355 765l4 -49c-64 0 -113 -46 -113 -114v-208c0 -72 -37 -115 -87 -138c50 -23 87 -66 87 -138v-207c0 -110 110 -114 113 -114l-4 -49c-53 2 -158 38 -158 163v211c0 95 -87 108 -115 108v52c28 0 115 9 115 108v212c0 125 105 161 158 163z" />
    <glyph glyph-name="bar" unicode="|" horiz-adv-x="360" 
d="M205 720v-954h-50v954h50z" />
    <glyph glyph-name="braceright" unicode="}" horiz-adv-x="441" 
d="M82 716l4 49c54 -2 158 -38 158 -163v-212c0 -99 87 -108 115 -108v-52c-28 0 -115 -13 -115 -108v-211c0 -125 -104 -161 -158 -163l-4 49c4 0 113 4 113 114v207c0 72 37 115 87 138c-50 23 -87 66 -87 138v208c0 68 -49 114 -113 114z" />
    <glyph glyph-name="asciitilde" unicode="~" horiz-adv-x="532" 
d="M411 320l44 -23c-18 -38 -53 -65 -94 -73c-9 -2 -18 -3 -28 -3c-29 0 -58 9 -82 27c-20 16 -45 22 -70 17c-26 -5 -48 -23 -60 -47l-44 22c18 38 53 65 94 73c39 8 78 -2 110 -25c20 -14 46 -20 70 -15c26 6 49 22 60 47z" />
    <glyph glyph-name="exclamdown" unicode="&#xa1;" horiz-adv-x="216" 
d="M129 275l9 -545h-60l9 545h42zM145 450v-72h-72v72h72z" />
    <glyph glyph-name="cent" unicode="&#xa2;" horiz-adv-x="527" 
d="M490 394l-44 -26c-36 46 -88 60 -144 60c-111 0 -202 -91 -202 -203s91 -202 202 -202c56 0 117 22 144 59l44 -26c-40 -50 -103 -76 -163 -82v-64h-50v64c-127 12 -227 120 -227 251s100 238 227 251v64h50v-64c60 -6 114 -23 163 -82z" />
    <glyph glyph-name="sterling" unicode="&#xa3;" horiz-adv-x="590" 
d="M122 50h408v-50h-471v50c98 103 122 153 84 286h-84v50h69c-16 45 -31 80 -31 135c0 130 88 226 233 226c89 0 151 -54 182 -109l-42 -24s-41 83 -140 83c-175 0 -182 -153 -182 -177c0 -39 16 -83 32 -134h257v-50h-242c23 -82 28 -185 -73 -286z" />
    <glyph glyph-name="fraction" unicode="&#x2044;" horiz-adv-x="207" 
d="M351 720l-437 -720h-58l438 720h57z" />
    <glyph glyph-name="yen" unicode="&#xa5;" horiz-adv-x="628" 
d="M599 720l-261 -387v-11h199v-50h-199v-75h199v-50h-199v-147h-50v147h-201v50h201v75h-201v50h201v14l-258 384h59l225 -335l225 335h60z" />
    <glyph glyph-name="section" unicode="&#xa7;" horiz-adv-x="630" 
d="M129 310c-1 -98 67 -111 227 -145c54 -12 108 -25 149 -52c14 24 22 52 22 82c1 108 -63 134 -246 171c-45 9 -87 21 -120 38c-21 -24 -32 -57 -32 -94zM579 189c0 -40 -13 -78 -35 -111c22 -28 35 -68 35 -123c-1 -116 -104 -216 -259 -216c-144 0 -232 89 -270 180
l41 25c25 -57 85 -155 229 -155c123 0 207 72 207 172c1 108 -63 134 -246 171c-113 23 -204 60 -203 175c0 48 16 90 44 124c-27 26 -44 60 -44 110c1 120 97 206 238 206c107 0 193 -48 229 -146l-38 -24c-22 55 -66 120 -187 120c-126 0 -191 -61 -191 -153
c-1 -98 67 -111 227 -145c114 -25 224 -53 223 -210z" />
    <glyph glyph-name="currency" unicode="&#xa4;" horiz-adv-x="531" 
d="M144 293c0 -65 60 -122 122 -122c61 0 121 57 121 122c0 61 -60 121 -121 121c-62 0 -122 -60 -122 -121zM460 455l-61 -62c23 -29 38 -65 38 -100c0 -36 -15 -71 -38 -101l61 -60l-32 -33l-60 61c-30 -24 -66 -39 -102 -39c-37 0 -73 15 -102 39l-60 -61l-32 32l60 61
c-23 30 -37 65 -37 101s15 72 38 101l-61 61l33 31l61 -60c29 23 64 37 100 37s71 -15 101 -38l60 61z" />
    <glyph glyph-name="quotesingle" unicode="'" horiz-adv-x="211" 
d="M135 720l-9 -270h-41l-9 270h59z" />
    <glyph glyph-name="quotedblleft" unicode="&#x201c;" horiz-adv-x="386" 
d="M80 542v86c0 56 17 90 44 120l41 -36c-20 -20 -33 -35 -35 -84h36v-86h-86zM214 542v86c0 56 17 90 44 120l41 -36c-20 -20 -33 -35 -35 -84h36v-86h-86z" />
    <glyph glyph-name="guillemotleft" unicode="&#xab;" horiz-adv-x="626" 
d="M551 441l-157 -166l157 -165l-28 -18l-202 183l202 184zM267 459l28 -18l-156 -166l156 -165l-28 -18l-201 183z" />
    <glyph glyph-name="guilsinglleft" unicode="&#x2039;" horiz-adv-x="374" 
d="M274 459l28 -18l-157 -166l157 -165l-28 -18l-202 183z" />
    <glyph glyph-name="guilsinglright" unicode="&#x203a;" horiz-adv-x="374" 
d="M229 275l-157 166l28 18l202 -184l-202 -183l-28 18z" />
    <glyph glyph-name="endash" unicode="&#x2013;" 
d="M509 323v-50h-432v50h432z" />
    <glyph glyph-name="dagger" unicode="&#x2020;" horiz-adv-x="675" 
d="M599 444v-51h-235l-7 -627h-37l-7 627h-236v51h236v276h51v-276h235z" />
    <glyph glyph-name="daggerdbl" unicode="&#x2021;" horiz-adv-x="675" 
d="M599 393h-235l-1 -165h236v-51h-237l-5 -411h-37l-5 411h-238v51h237l-1 165h-236v51h236v276h51v-276h235v-51z" />
    <glyph glyph-name="periodcentered" unicode="&#xb7;" horiz-adv-x="263" 
d="M167 381v-72h-72v72h72z" />
    <glyph glyph-name="paragraph" unicode="&#xb6;" horiz-adv-x="765" 
d="M697 720v-50h-60v-904h-50v904h-225v-904h-51v450c-139 0 -252 113 -252 252c0 140 113 252 252 252h386z" />
    <glyph glyph-name="bullet" unicode="&#x2022;" horiz-adv-x="423" 
d="M212 329c45 0 81 -36 81 -81s-36 -81 -81 -81s-81 36 -81 81s36 81 81 81z" />
    <glyph glyph-name="quotesinglbase" unicode="&#x201a;" horiz-adv-x="263" 
d="M158 71v-71c0 -47 -14 -75 -37 -100l-34 30c17 17 28 29 29 70h-30v71h72z" />
    <glyph glyph-name="quotedblbase" unicode="&#x201e;" horiz-adv-x="356" 
d="M275 71v-71c0 -47 -15 -75 -38 -100l-34 30c18 17 28 29 29 70h-29v71h72zM140 71v-71c0 -47 -15 -75 -38 -100l-34 30c18 17 28 29 29 70h-29v71h72z" />
    <glyph glyph-name="quotedblright" unicode="&#x201d;" horiz-adv-x="386" 
d="M306 720v-86c0 -57 -17 -90 -44 -120l-41 36c20 20 34 35 35 84h-36v86h86zM172 720v-86c0 -57 -17 -90 -44 -120l-41 36c20 20 34 35 35 84h-36v86h86z" />
    <glyph glyph-name="guillemotright" unicode="&#xbb;" horiz-adv-x="626" 
d="M66 110l156 165l-156 166l28 18l201 -184l-201 -183zM478 275l-157 166l28 18l202 -184l-202 -183l-28 18z" />
    <glyph glyph-name="ellipsis" unicode="&#x2026;" horiz-adv-x="544" 
d="M465 72v-72h-72v72h72zM308 72v-72h-72v72h72zM150 72v-72h-72v72h72z" />
    <glyph glyph-name="perthousand" unicode="&#x2030;" horiz-adv-x="1125" 
d="M923 222c-52 0 -99 -47 -99 -99s47 -99 99 -99c50 0 99 47 99 99s-49 99 -99 99zM563 222c-52 0 -99 -47 -99 -99s47 -99 99 -99c50 0 99 47 99 99s-49 99 -99 99zM923 270c75 0 148 -72 148 -148c0 -74 -73 -149 -148 -149c-76 0 -149 75 -149 149c0 76 73 148 149 148z
M563 270c75 0 148 -72 148 -148c0 -74 -73 -149 -148 -149c-76 0 -149 75 -149 149c0 76 73 148 149 148zM203 698c-51 0 -99 -47 -99 -98s48 -99 99 -99c50 0 99 48 99 99s-49 98 -99 98zM639 720l-455 -720h-58l456 720h57zM203 747c75 0 148 -72 148 -148
c0 -74 -73 -149 -148 -149c-76 0 -149 75 -149 149c0 76 73 148 149 148z" />
    <glyph glyph-name="questiondown" unicode="&#xbf;" horiz-adv-x="546" 
d="M239 378v72h72v-72h-72zM446 -68l48 -6c0 -127 -99 -223 -220 -223c-123 0 -222 99 -222 220c0 91 50 150 135 196c11 6 67 38 62 136h51c2 -136 -82 -177 -104 -189c-59 -32 -93 -79 -93 -143c0 -93 76 -171 171 -171c93 0 172 78 172 180z" />
    <glyph glyph-name="grave" unicode="`" 
d="M389 630l-206 64l15 57l205 -91z" />
    <glyph glyph-name="acute" unicode="&#xb4;" 
d="M388 751l15 -57l-206 -64l-14 30z" />
    <glyph glyph-name="circumflex" unicode="&#x2c6;" 
d="M293 733l117 -66l-19 -28l-98 40l-98 -40l-19 28z" />
    <glyph glyph-name="tilde" unicode="&#x2dc;" 
d="M438 732l44 -23c-18 -38 -53 -66 -94 -73c-9 -2 -18 -2 -28 -2c-29 0 -58 9 -82 27c-20 15 -45 21 -70 16c-26 -5 -48 -23 -60 -47l-44 23c18 37 53 63 94 72c39 8 78 -1 110 -25c20 -14 46 -20 70 -15c26 5 49 22 60 47z" />
    <glyph glyph-name="macron" unicode="&#xaf;" 
d="M410 680v-50h-234v50h234z" />
    <glyph glyph-name="breve" unicode="&#x2d8;" 
d="M400 787h49c0 -87 -69 -157 -156 -157c-86 0 -156 70 -156 157h49c0 -60 48 -107 107 -107s107 47 107 107z" />
    <glyph glyph-name="dotaccent" unicode="&#x2d9;" 
d="M329 702v-72h-72v72h72z" />
    <glyph glyph-name="dieresis" unicode="&#xa8;" 
d="M406 693v-63h-63v63h63zM242 693v-63h-63v63h63z" />
    <glyph glyph-name="ring" unicode="&#x2da;" 
d="M293 797c-33 0 -59 -26 -59 -59s26 -58 59 -58c32 0 58 25 58 58s-26 59 -58 59zM293 846c59 0 108 -48 108 -108c0 -59 -49 -108 -108 -108c-61 0 -108 49 -108 108c0 60 47 108 108 108z" />
    <glyph glyph-name="cedilla" unicode="&#xb8;" 
d="M273 -126v153h39v-115c49 -9 86 -52 86 -104c0 -57 -47 -105 -105 -105s-101 39 -106 96l40 9c0 -36 30 -65 66 -65s65 29 65 65s-29 66 -65 66h-20z" />
    <glyph glyph-name="hungarumlaut" unicode="&#x2dd;" 
d="M446 802l33 -36l-150 -136l-20 23zM239 802l33 -36l-150 -136l-20 23z" />
    <glyph glyph-name="ogonek" unicode="&#x2db;" 
d="M298 22l64 -22c-28 -14 -68 -36 -99 -71c-42 -49 -50 -95 -8 -124c25 -18 65 -8 83 18l36 -32c-33 -48 -99 -60 -148 -27c-49 34 -59 91 -34 149c2 7 30 60 106 109z" />
    <glyph glyph-name="caron" unicode="&#x2c7;" 
d="M391 733l19 -28l-117 -66l-117 66l19 28l98 -40z" />
    <glyph glyph-name="emdash" unicode="&#x2014;" 
d="M617 323v-50h-649v50h649z" />
    <glyph glyph-name="AE" unicode="&#xc6;" horiz-adv-x="950" 
d="M447 627l-231 -404h232zM877 720v-50h-379v-285h328v-50h-328v-285h379l-2 -50h-426l-1 173h-261l-99 -173h-56l415 720h430z" />
    <glyph glyph-name="ordfeminine" unicode="&#xaa;" horiz-adv-x="414" 
d="M184 484c73 0 122 49 122 114c0 1 -66 7 -121 7c-40 0 -81 -15 -81 -55s30 -66 80 -66zM357 578v-131h-51v44c-13 -23 -62 -60 -121 -60c-74 0 -131 45 -131 114c0 54 41 113 140 113c49 0 89 -6 108 -9c-5 41 -18 92 -99 92c-51 0 -87 -19 -105 -33l-26 43
c39 29 93 40 126 40c69 0 108 -23 131 -58c24 -37 28 -90 28 -155z" />
    <glyph glyph-name="Lslash" unicode="&#x141;" horiz-adv-x="573" 
d="M149 50h371v-50h-420v320l-63 -18l-14 47l77 24v347h49v-333l65 22l16 -48l-81 -26v-285z" />
    <glyph glyph-name="Oslash" unicode="&#xd8;" horiz-adv-x="873" 
d="M689 584l-474 -479c59 -51 137 -82 222 -82c186 0 336 151 336 337c0 86 -31 164 -84 224zM183 137l474 479c-60 51 -137 81 -220 81c-187 0 -337 -151 -337 -337c0 -85 31 -163 83 -223zM793 689l-69 -70c62 -69 100 -160 100 -259c0 -213 -174 -387 -387 -387
c-99 0 -188 37 -257 97l-69 -70l-32 32l69 70c-61 69 -98 159 -98 258c0 213 173 387 387 387c97 0 186 -36 254 -96l69 69z" />
    <glyph glyph-name="OE" unicode="&#x152;" horiz-adv-x="1265" 
d="M773 362c0 184 -151 335 -336 335c-186 0 -337 -152 -337 -337s151 -337 337 -337c185 0 337 152 336 339zM1202 670h-378v-285h329v-50h-329v-285h378v-50h-428v172c-66 -119 -193 -199 -337 -199c-214 0 -387 174 -387 387s173 387 387 387c144 0 270 -80 336 -197v170
h429v-50z" />
    <glyph glyph-name="ordmasculine" unicode="&#xba;" horiz-adv-x="459" 
d="M230 742c-72 0 -131 -59 -131 -131s59 -130 131 -130s130 58 130 130s-58 131 -130 131zM230 791c99 0 180 -80 180 -180s-81 -180 -180 -180c-100 0 -180 80 -180 180s80 180 180 180z" />
    <glyph glyph-name="ae" unicode="&#xe6;" horiz-adv-x="1105" 
d="M268 23c123 0 238 74 236 151c-1 47 0 53 -2 86c2 1 -98 23 -188 27c-135 5 -211 -38 -211 -128c0 -97 83 -136 165 -136zM554 298h458c-4 119 -96 219 -223 219c-142 0 -233 -117 -235 -219zM1063 290c0 -20 -2 -31 -4 -42h-505c10 -127 102 -225 237 -225
c104 0 168 58 201 102l46 -23c-54 -72 -135 -129 -247 -129c-111 0 -201 58 -250 144c-34 -69 -135 -144 -272 -144c-122 0 -217 65 -217 180c0 98 58 194 267 185c82 -4 151 -20 182 -27c-8 86 -40 206 -202 206c-85 0 -159 -37 -189 -60l-26 41c63 47 151 69 206 69
c114 0 179 -39 216 -96c12 -19 21 -40 29 -62c46 94 140 158 252 158c155 0 276 -112 276 -277z" />
    <glyph glyph-name="dotlessi" unicode="&#x131;" horiz-adv-x="209" 
d="M130 540v-540h-51v540h51z" />
    <glyph glyph-name="lslash" unicode="&#x142;" horiz-adv-x="236" 
d="M206 427l15 -48l-78 -24v-355h-50v339l-64 -19l-15 47l79 25v328h50v-313z" />
    <glyph glyph-name="oslash" unicode="&#xf8;" horiz-adv-x="693" 
d="M347 23c135 0 246 111 246 247c0 60 -21 115 -57 158l-346 -348c42 -35 97 -57 157 -57zM100 270c0 -60 22 -115 58 -158l345 349c-43 35 -97 56 -156 56c-136 0 -247 -111 -247 -247zM615 509l-43 -45c45 -52 72 -119 72 -194c0 -165 -133 -297 -297 -297
c-74 0 -142 26 -193 70l-43 -43l-32 32l43 44c-45 52 -72 119 -72 194c0 165 132 297 297 297c73 0 140 -26 192 -70l42 43z" />
    <glyph glyph-name="oe" unicode="&#x153;" horiz-adv-x="1199" 
d="M645 298h458c-4 119 -96 219 -223 219c-142 0 -233 -117 -235 -219zM347 23c135 0 246 111 246 247s-111 247 -246 247c-136 0 -247 -111 -247 -247s111 -247 247 -247zM1154 290c0 -20 -2 -31 -4 -42h-505c10 -127 102 -225 237 -225c104 0 168 58 201 102l46 -23
c-54 -72 -135 -129 -247 -129c-124 0 -221 71 -265 175c-46 -104 -150 -175 -270 -175c-165 0 -297 132 -297 297s132 297 297 297c121 0 225 -71 270 -175c45 104 143 175 261 175c155 0 276 -112 276 -277z" />
    <glyph glyph-name="germandbls" unicode="&#xdf;" 
d="M86 0v490c0 224 123 257 195 257c92 0 171 -74 171 -166c0 -68 -23 -115 -68 -142c93 -30 149 -105 149 -204c0 -136 -110 -235 -260 -235h-105v50h105c124 0 209 76 209 185c0 126 -108 172 -209 172v50c84 0 128 46 128 124c0 64 -54 116 -120 116
c-97 0 -144 -68 -144 -207v-490h-51z" />
    <glyph glyph-name="logicalnot" unicode="&#xac;" horiz-adv-x="675" 
d="M77 337h522v-237h-51v186h-471v51z" />
    <glyph glyph-name="trademark" unicode="&#x2122;" horiz-adv-x="612" 
d="M487 720h34l51 -270h-35l-39 203l-76 -203h-34l-77 203l-38 -203h-34l50 270h33l83 -219zM234 720v-33h-76v-237h-33v237h-75v33h184z" />
    <glyph glyph-name="Eth" unicode="&#xd0;" horiz-adv-x="707" 
d="M147 50h148c171 0 311 139 311 310s-140 310 -311 310h-148v-285h90v-49h-90v-286zM96 720h199c199 0 360 -161 360 -360s-161 -360 -360 -360h-199v336h-54v49h54v335z" />
    <glyph glyph-name="onehalf" unicode="&#xbd;" horiz-adv-x="891" 
d="M629 264l-45 6c0 60 50 104 110 104s110 -40 110 -101c0 -36 -15 -69 -50 -107l-110 -121h160v-45h-220v45l133 146c29 32 42 55 42 82c0 36 -29 56 -65 56c-35 0 -65 -29 -65 -65zM648 720l-437 -720h-58l438 720h57zM200 720v-360h-45v288l-51 -61l-34 28l85 105h45z
" />
    <glyph glyph-name="plusminus" unicode="&#xb1;" 
d="M509 86v-50h-432v50h432zM509 413v-50h-190v-192h-51v192h-191v50h191v190h51v-190h190z" />
    <glyph glyph-name="Thorn" unicode="&#xde;" horiz-adv-x="581" 
d="M129 185h179c96 0 175 79 175 175s-78 175 -174 175h-180v-350zM129 585h180c124 0 224 -102 224 -225c0 -124 -101 -225 -225 -225h-179v-135h-51v720h51v-135z" />
    <glyph glyph-name="onequarter" unicode="&#xbc;" horiz-adv-x="882" 
d="M745 360l-129 -236h96v67h45v-67h62v-45h-62v-79h-45v79h-147v45l130 236h50zM648 720l-437 -720h-58l438 720h57zM200 720v-360h-45v288l-51 -61l-34 28l85 105h45z" />
    <glyph glyph-name="divide" unicode="&#xf7;" 
d="M327 153v-72h-72v72h72zM509 323v-50h-432v50h432zM327 518v-72h-72v72h72z" />
    <glyph glyph-name="brokenbar" unicode="&#xa6;" horiz-adv-x="360" 
d="M205 99v-333h-50v333h50zM205 720v-333h-50v333h50z" />
    <glyph glyph-name="degree" unicode="&#xb0;" horiz-adv-x="405" 
d="M203 698c-51 0 -99 -47 -99 -98s48 -99 99 -99c50 0 99 48 99 99s-49 98 -99 98zM203 747c75 0 148 -72 148 -148c0 -74 -73 -149 -148 -149c-76 0 -149 75 -149 149c0 76 73 148 149 148z" />
    <glyph glyph-name="thorn" unicode="&#xfe;" horiz-adv-x="655" 
d="M322 24c147 0 228 120 228 247c0 113 -67 246 -228 246c-115 0 -174 -62 -196 -114v-261c27 -53 91 -118 196 -118zM126 62v-296h-50v954h50v-235c37 46 110 82 196 82c158 0 278 -125 278 -299c0 -165 -117 -294 -278 -294c-76 0 -148 31 -196 88z" />
    <glyph glyph-name="threequarters" unicode="&#xbe;" horiz-adv-x="927" 
d="M790 360l-129 -236h96v67h45v-67h62v-45h-62v-79h-45v79h-147v45l130 236h50zM693 720l-437 -720h-58l438 720h57zM102 637l-45 5c0 54 47 105 115 105c72 0 113 -51 113 -110c0 -31 -18 -65 -47 -77c39 -15 54 -55 54 -87c0 -58 -45 -113 -118 -113
c-69 0 -116 43 -121 105l45 5c3 -48 42 -65 74 -65c43 0 75 28 75 61c0 53 -35 70 -106 70v45c71 0 99 18 99 61c0 35 -25 60 -68 60c-32 0 -70 -19 -70 -65z" />
    <glyph glyph-name="registered" unicode="&#xae;" horiz-adv-x="549" 
d="M238 607v-85h43c23 0 42 19 42 42s-19 43 -42 43h-43zM301 497l57 -87h-33l-56 84h-31v-84h-29v225h72c39 0 70 -33 70 -71c0 -31 -21 -58 -50 -67zM275 716c-106 0 -193 -87 -193 -194c0 -106 87 -193 193 -193c108 0 194 87 194 193c0 107 -86 194 -194 194zM275 747
c125 0 225 -101 225 -225c0 -123 -100 -225 -225 -225c-123 0 -225 102 -225 225c0 124 102 225 225 225z" />
    <glyph glyph-name="minus" unicode="&#x2212;" 
d="M509 323v-50h-432v50h432z" />
    <glyph glyph-name="eth" unicode="&#xf0;" horiz-adv-x="693" 
d="M347 23c136 0 246 110 246 247s-110 247 -246 247c-135 0 -247 -110 -247 -247s112 -247 247 -247zM610 408c21 -43 34 -88 34 -138c0 -165 -133 -297 -297 -297c-165 0 -297 132 -297 297c0 140 105 294 297 296c-39 24 -121 45 -151 51l-9 -33l-56 15l9 35l-54 13
l13 52l54 -13l9 34l56 -13l-9 -35c115 -31 322 -101 401 -264z" />
    <glyph glyph-name="multiply" unicode="&#xd7;" horiz-adv-x="540" 
d="M468 136l-35 -36l-162 161l-162 -162l-36 35l163 163l-163 163l36 35l162 -162l162 161l35 -36l-161 -161z" />
    <glyph glyph-name="copyright" unicode="&#xa9;" horiz-adv-x="549" 
d="M339 458l25 -13c-21 -26 -53 -40 -89 -40c-64 0 -117 52 -117 117s53 117 117 117c36 0 68 -13 89 -40l-25 -13c-14 16 -37 26 -64 26c-49 0 -90 -40 -90 -90c0 -49 41 -90 90 -90c27 0 50 10 64 26zM275 716c-106 0 -193 -87 -193 -194c0 -106 87 -193 193 -193
c108 0 194 87 194 193c0 107 -86 194 -194 194zM275 747c125 0 225 -101 225 -225c0 -123 -100 -225 -225 -225c-123 0 -225 102 -225 225c0 124 102 225 225 225z" />
    <glyph glyph-name="Aacute" unicode="&#xc1;" horiz-adv-x="733" 
d="M367 653l-186 -430h372zM704 0h-55l-75 173h-416l-74 -173h-55l313 720h50zM454 931l15 -57l-206 -64l-15 30z" />
    <glyph glyph-name="Acircumflex" unicode="&#xc2;" horiz-adv-x="733" 
d="M367 653l-186 -430h372zM704 0h-55l-75 173h-416l-74 -173h-55l313 720h50zM367 913l116 -66l-19 -28l-97 40l-98 -40l-19 28z" />
    <glyph glyph-name="Adieresis" unicode="&#xc4;" horiz-adv-x="733" 
d="M367 653l-186 -430h372zM704 0h-55l-75 173h-416l-74 -173h-55l313 720h50zM480 873v-63h-63v63h63zM316 873v-63h-63v63h63z" />
    <glyph glyph-name="Agrave" unicode="&#xc0;" horiz-adv-x="733" 
d="M367 653l-186 -430h372zM704 0h-55l-75 173h-416l-74 -173h-55l313 720h50zM279 931l205 -91l-14 -30l-206 64z" />
    <glyph glyph-name="Aring" unicode="&#xc5;" horiz-adv-x="733" 
d="M367 653l-186 -430h372zM704 0h-55l-75 173h-416l-74 -173h-55l313 720h50zM366 977c-32 0 -58 -26 -58 -59s26 -58 58 -58c33 0 59 25 59 58s-26 59 -59 59zM366 1026c60 0 108 -48 108 -108c0 -59 -48 -108 -108 -108s-108 49 -108 108c0 60 48 108 108 108z" />
    <glyph glyph-name="Atilde" unicode="&#xc3;" horiz-adv-x="733" 
d="M367 653l-186 -430h372zM704 0h-55l-75 173h-416l-74 -173h-55l313 720h50zM512 912l44 -23c-19 -38 -53 -66 -94 -73c-9 -2 -18 -2 -28 -2c-29 0 -58 9 -82 27c-20 15 -45 21 -70 16c-26 -5 -48 -23 -61 -47l-44 23c19 37 53 63 95 72c39 8 78 -1 110 -25
c19 -14 46 -20 70 -15c26 5 48 22 60 47z" />
    <glyph glyph-name="Ccedilla" unicode="&#xc7;" horiz-adv-x="754" 
d="M437 23c93 0 169 19 239 99l42 -27c-77 -86 -170 -120 -272 -122v-61c48 -9 85 -52 85 -104c0 -57 -47 -105 -105 -105s-101 39 -106 96l40 9c0 -36 30 -65 66 -65s65 29 65 65s-29 66 -65 66h-20v100c-200 16 -356 184 -356 386c0 213 173 387 387 387
c107 0 202 -34 281 -122l-42 -26c-70 79 -146 99 -239 99c-186 0 -337 -152 -337 -338s151 -337 337 -337z" />
    <glyph glyph-name="Eacute" unicode="&#xc9;" 
d="M508 720v-50h-379v-285h328v-50h-328v-285h379v-50h-430v720h430zM382 931l15 -57l-206 -64l-15 30z" />
    <glyph glyph-name="Ecircumflex" unicode="&#xca;" 
d="M508 720v-50h-379v-285h328v-50h-328v-285h379v-50h-430v720h430zM293 913l117 -66l-19 -28l-98 40l-98 -40l-19 28z" />
    <glyph glyph-name="Edieresis" unicode="&#xcb;" 
d="M508 720v-50h-379v-285h328v-50h-328v-285h379v-50h-430v720h430zM406 873v-63h-63v63h63zM242 873v-63h-63v63h63z" />
    <glyph glyph-name="Egrave" unicode="&#xc8;" 
d="M508 720v-50h-379v-285h328v-50h-328v-285h379v-50h-430v720h430zM201 931l205 -91l-14 -30l-207 64z" />
    <glyph glyph-name="Iacute" unicode="&#xcd;" horiz-adv-x="209" 
d="M130 720v-720h-51v720h51zM200 931l15 -57l-207 -64l-14 30z" />
    <glyph glyph-name="Icircumflex" unicode="&#xce;" horiz-adv-x="209" 
d="M130 720v-720h-51v720h51zM105 913l116 -66l-18 -28l-98 40l-99 -40l-19 28z" />
    <glyph glyph-name="Idieresis" unicode="&#xcf;" horiz-adv-x="209" 
d="M130 720v-720h-51v720h51zM218 873v-63h-63v63h63zM54 873v-63h-63v63h63z" />
    <glyph glyph-name="Igrave" unicode="&#xcc;" horiz-adv-x="209" 
d="M130 720v-720h-51v720h51zM9 931l206 -91l-14 -30l-207 64z" />
    <glyph glyph-name="Ntilde" unicode="&#xd1;" horiz-adv-x="709" 
d="M128 720l453 -631v631h51v-720h-51l-453 631v-631h-51v720h51zM500 912l45 -23c-19 -38 -54 -66 -95 -73c-9 -2 -18 -2 -28 -2c-29 0 -57 9 -82 27c-20 15 -45 21 -70 16c-26 -5 -48 -23 -60 -47l-44 23c19 37 53 63 94 72c39 8 78 -1 110 -25c20 -14 46 -20 70 -15
c26 5 49 22 60 47z" />
    <glyph glyph-name="Oacute" unicode="&#xd3;" horiz-adv-x="873" 
d="M437 697c-186 0 -337 -152 -337 -337s151 -337 337 -337c185 0 336 152 336 337s-151 337 -336 337zM437 747c213 0 387 -174 387 -387s-174 -387 -387 -387c-214 0 -387 174 -387 387s173 387 387 387zM532 931l15 -57l-206 -64l-14 30z" />
    <glyph glyph-name="Ocircumflex" unicode="&#xd4;" horiz-adv-x="873" 
d="M437 697c-186 0 -337 -152 -337 -337s151 -337 337 -337c185 0 336 152 336 337s-151 337 -336 337zM437 747c213 0 387 -174 387 -387s-174 -387 -387 -387c-214 0 -387 174 -387 387s173 387 387 387zM437 913l117 -66l-19 -28l-98 40l-98 -40l-19 28z" />
    <glyph glyph-name="Odieresis" unicode="&#xd6;" horiz-adv-x="873" 
d="M437 697c-186 0 -337 -152 -337 -337s151 -337 337 -337c185 0 336 152 336 337s-151 337 -336 337zM437 747c213 0 387 -174 387 -387s-174 -387 -387 -387c-214 0 -387 174 -387 387s173 387 387 387zM550 873v-63h-63v63h63zM386 873v-63h-63v63h63z" />
    <glyph glyph-name="Ograve" unicode="&#xd2;" horiz-adv-x="873" 
d="M437 697c-186 0 -337 -152 -337 -337s151 -337 337 -337c185 0 336 152 336 337s-151 337 -336 337zM437 747c213 0 387 -174 387 -387s-174 -387 -387 -387c-214 0 -387 174 -387 387s173 387 387 387zM342 931l205 -91l-14 -30l-206 64z" />
    <glyph glyph-name="Otilde" unicode="&#xd5;" horiz-adv-x="873" 
d="M437 697c-186 0 -337 -152 -337 -337s151 -337 337 -337c185 0 336 152 336 337s-151 337 -336 337zM437 747c213 0 387 -174 387 -387s-174 -387 -387 -387c-214 0 -387 174 -387 387s173 387 387 387zM582 912l44 -23c-18 -38 -53 -66 -94 -73c-9 -2 -18 -2 -28 -2
c-29 0 -58 9 -82 27c-20 15 -45 21 -70 16c-26 -5 -48 -23 -60 -47l-44 23c18 37 53 63 94 72c39 8 78 -1 110 -25c20 -14 46 -20 70 -15c26 5 49 22 60 47z" />
    <glyph glyph-name="Scaron" unicode="&#x160;" horiz-adv-x="630" 
d="M281 366c-113 23 -204 60 -203 175c1 120 97 206 238 206c107 0 193 -48 229 -146l-38 -24c-22 55 -66 120 -187 120c-126 0 -191 -61 -191 -153c-1 -98 67 -111 227 -145c114 -25 224 -53 223 -210c-1 -116 -104 -216 -259 -216c-144 0 -232 89 -270 180l41 25
c25 -57 85 -155 229 -155c123 0 207 72 207 172c1 108 -63 134 -246 171zM410 913l19 -28l-116 -66l-117 66l19 28l98 -40z" />
    <glyph glyph-name="Uacute" unicode="&#xda;" horiz-adv-x="706" 
d="M630 720v-474c0 -162 -133 -273 -277 -273s-277 111 -277 273v474h50v-474c0 -138 107 -223 227 -223s227 85 227 223v474h50zM444 931l15 -57l-206 -64l-14 30z" />
    <glyph glyph-name="Ucircumflex" unicode="&#xdb;" horiz-adv-x="706" 
d="M630 720v-474c0 -162 -133 -273 -277 -273s-277 111 -277 273v474h50v-474c0 -138 107 -223 227 -223s227 85 227 223v474h50zM354 913l116 -66l-19 -28l-97 40l-98 -40l-19 28z" />
    <glyph glyph-name="Udieresis" unicode="&#xdc;" horiz-adv-x="706" 
d="M630 720v-474c0 -162 -133 -273 -277 -273s-277 111 -277 273v474h50v-474c0 -138 107 -223 227 -223s227 85 227 223v474h50zM466 873v-63h-63v63h63zM302 873v-63h-63v63h63z" />
    <glyph glyph-name="Ugrave" unicode="&#xd9;" horiz-adv-x="706" 
d="M630 720v-474c0 -162 -133 -273 -277 -273s-277 111 -277 273v474h50v-474c0 -138 107 -223 227 -223s227 85 227 223v474h50zM263 931l205 -91l-14 -30l-206 64z" />
    <glyph glyph-name="Yacute" unicode="&#xdd;" horiz-adv-x="628" 
d="M599 720l-261 -387v-333h-50v336l-258 384h59l225 -335l225 335h60zM410 931l15 -57l-206 -64l-15 30z" />
    <glyph glyph-name="Ydieresis" unicode="&#x178;" horiz-adv-x="628" 
d="M599 720l-261 -387v-333h-50v336l-258 384h59l225 -335l225 335h60zM428 873v-63h-63v63h63zM264 873v-63h-63v63h63z" />
    <glyph glyph-name="Zcaron" unicode="&#x17d;" horiz-adv-x="635" 
d="M576 670l-456 -620h456v-50h-517v50l456 620h-456v50h517v-50zM415 913l19 -28l-116 -66l-117 66l19 28l98 -40z" />
    <glyph glyph-name="aacute" unicode="&#xe1;" horiz-adv-x="623" 
d="M268 23c123 0 238 74 236 151c-1 22 0 61 -2 86c2 1 -98 23 -188 27c-135 5 -211 -38 -211 -128c0 -97 83 -136 165 -136zM554 224v-224h-51v72c-22 -38 -137 -99 -234 -99c-122 0 -217 65 -217 180c0 98 58 194 267 185c82 -4 151 -20 182 -27c-8 86 -40 206 -202 206
c-85 0 -159 -37 -189 -60l-26 41c63 47 151 69 206 69c114 0 179 -39 216 -96c39 -61 48 -140 48 -247zM400 751l15 -57l-206 -64l-15 30z" />
    <glyph glyph-name="acircumflex" unicode="&#xe2;" horiz-adv-x="623" 
d="M268 23c123 0 238 74 236 151c-1 22 0 61 -2 86c2 1 -98 23 -188 27c-135 5 -211 -38 -211 -128c0 -97 83 -136 165 -136zM554 224v-224h-51v72c-22 -38 -137 -99 -234 -99c-122 0 -217 65 -217 180c0 98 58 194 267 185c82 -4 151 -20 182 -27c-8 86 -40 206 -202 206
c-85 0 -159 -37 -189 -60l-26 41c63 47 151 69 206 69c114 0 179 -39 216 -96c39 -61 48 -140 48 -247zM313 733l116 -66l-19 -28l-97 40l-98 -40l-19 28z" />
    <glyph glyph-name="adieresis" unicode="&#xe4;" horiz-adv-x="623" 
d="M268 23c123 0 238 74 236 151c-1 22 0 61 -2 86c2 1 -98 23 -188 27c-135 5 -211 -38 -211 -128c0 -97 83 -136 165 -136zM554 224v-224h-51v72c-22 -38 -137 -99 -234 -99c-122 0 -217 65 -217 180c0 98 58 194 267 185c82 -4 151 -20 182 -27c-8 86 -40 206 -202 206
c-85 0 -159 -37 -189 -60l-26 41c63 47 151 69 206 69c114 0 179 -39 216 -96c39 -61 48 -140 48 -247zM426 693v-63h-63v63h63zM262 693v-63h-63v63h63z" />
    <glyph glyph-name="agrave" unicode="&#xe0;" horiz-adv-x="623" 
d="M268 23c123 0 238 74 236 151c-1 22 0 61 -2 86c2 1 -98 23 -188 27c-135 5 -211 -38 -211 -128c0 -97 83 -136 165 -136zM554 224v-224h-51v72c-22 -38 -137 -99 -234 -99c-122 0 -217 65 -217 180c0 98 58 194 267 185c82 -4 151 -20 182 -27c-8 86 -40 206 -202 206
c-85 0 -159 -37 -189 -60l-26 41c63 47 151 69 206 69c114 0 179 -39 216 -96c39 -61 48 -140 48 -247zM228 751l205 -91l-14 -30l-207 64z" />
    <glyph glyph-name="aring" unicode="&#xe5;" horiz-adv-x="623" 
d="M268 23c123 0 238 74 236 151c-1 22 0 61 -2 86c2 1 -98 23 -188 27c-135 5 -211 -38 -211 -128c0 -97 83 -136 165 -136zM554 224v-224h-51v72c-22 -38 -137 -99 -234 -99c-122 0 -217 65 -217 180c0 98 58 194 267 185c82 -4 151 -20 182 -27c-8 86 -40 206 -202 206
c-85 0 -159 -37 -189 -60l-26 41c63 47 151 69 206 69c114 0 179 -39 216 -96c39 -61 48 -140 48 -247zM309 797c-33 0 -59 -26 -59 -59s26 -58 59 -58c32 0 58 25 58 58s-26 59 -58 59zM309 846c59 0 108 -48 108 -108c0 -59 -49 -108 -108 -108c-61 0 -108 49 -108 108
c0 60 47 108 108 108z" />
    <glyph glyph-name="atilde" unicode="&#xe3;" horiz-adv-x="623" 
d="M268 23c123 0 238 74 236 151c-1 22 0 61 -2 86c2 1 -98 23 -188 27c-135 5 -211 -38 -211 -128c0 -97 83 -136 165 -136zM554 224v-224h-51v72c-22 -38 -137 -99 -234 -99c-122 0 -217 65 -217 180c0 98 58 194 267 185c82 -4 151 -20 182 -27c-8 86 -40 206 -202 206
c-85 0 -159 -37 -189 -60l-26 41c63 47 151 69 206 69c114 0 179 -39 216 -96c39 -61 48 -140 48 -247zM449 732l44 -23c-19 -38 -53 -66 -94 -73c-9 -2 -18 -2 -28 -2c-29 0 -58 9 -82 27c-20 15 -45 21 -70 16c-26 -5 -48 -23 -61 -47l-44 23c19 37 53 63 95 72
c39 8 78 -1 110 -25c19 -14 46 -20 70 -15c26 5 48 22 60 47z" />
    <glyph glyph-name="ccedilla" unicode="&#xe7;" horiz-adv-x="616" 
d="M351 23c98 0 157 52 186 94l42 -25c-55 -76 -124 -115 -213 -119v-61c49 -9 86 -52 86 -104c0 -57 -47 -105 -105 -105s-101 39 -106 96l40 9c0 -36 30 -65 66 -65s65 29 65 65s-29 66 -65 66h-20v100c-154 11 -277 139 -277 296c0 165 135 297 298 297
c98 0 173 -38 231 -119l-42 -25c-29 42 -88 94 -186 94c-146 0 -250 -107 -250 -247c0 -136 104 -247 250 -247z" />
    <glyph glyph-name="eacute" unicode="&#xe9;" horiz-adv-x="648" 
d="M97 298h457c-3 119 -95 219 -222 219c-142 0 -233 -117 -235 -219zM535 125l46 -23c-54 -72 -135 -129 -247 -129c-169 0 -289 132 -289 297s124 297 284 297c156 0 277 -112 277 -277c0 -20 -2 -31 -4 -42h-505c10 -127 102 -225 237 -225c103 0 168 58 201 102z
M415 751l15 -57l-206 -64l-14 30z" />
    <glyph glyph-name="ecircumflex" unicode="&#xea;" horiz-adv-x="648" 
d="M97 298h457c-3 119 -95 219 -222 219c-142 0 -233 -117 -235 -219zM535 125l46 -23c-54 -72 -135 -129 -247 -129c-169 0 -289 132 -289 297s124 297 284 297c156 0 277 -112 277 -277c0 -20 -2 -31 -4 -42h-505c10 -127 102 -225 237 -225c103 0 168 58 201 102z
M332 733l116 -66l-19 -28l-97 40l-98 -40l-19 28z" />
    <glyph glyph-name="edieresis" unicode="&#xeb;" horiz-adv-x="648" 
d="M97 298h457c-3 119 -95 219 -222 219c-142 0 -233 -117 -235 -219zM535 125l46 -23c-54 -72 -135 -129 -247 -129c-169 0 -289 132 -289 297s124 297 284 297c156 0 277 -112 277 -277c0 -20 -2 -31 -4 -42h-505c10 -127 102 -225 237 -225c103 0 168 58 201 102z
M446 693v-63h-63v63h63zM282 693v-63h-63v63h63z" />
    <glyph glyph-name="egrave" unicode="&#xe8;" horiz-adv-x="648" 
d="M97 298h457c-3 119 -95 219 -222 219c-142 0 -233 -117 -235 -219zM535 125l46 -23c-54 -72 -135 -129 -247 -129c-169 0 -289 132 -289 297s124 297 284 297c156 0 277 -112 277 -277c0 -20 -2 -31 -4 -42h-505c10 -127 102 -225 237 -225c103 0 168 58 201 102z
M248 751l205 -91l-15 -30l-206 64z" />
    <glyph glyph-name="iacute" unicode="&#xed;" horiz-adv-x="227" 
d="M139 540v-540h-51v540h51zM203 751l16 -57l-207 -64l-15 30z" />
    <glyph glyph-name="icircumflex" unicode="&#xee;" horiz-adv-x="245" 
d="M148 540v-540h-51v540h51zM123 733l116 -66l-18 -28l-98 40l-99 -40l-19 28z" />
    <glyph glyph-name="idieresis" unicode="&#xef;" horiz-adv-x="209" 
d="M130 540v-540h-51v540h51zM218 693v-63h-63v63h63zM54 693v-63h-63v63h63z" />
    <glyph glyph-name="igrave" unicode="&#xec;" horiz-adv-x="227" 
d="M139 540v-540h-51v540h51zM23 751l206 -91l-15 -30l-207 64z" />
    <glyph glyph-name="ntilde" unicode="&#xf1;" horiz-adv-x="621" 
d="M311 566c155 0 240 -75 240 -231v-335h-51v344c0 128 -87 172 -187 172c-82 0 -187 -43 -187 -145v-371h-50v540h50v-48c15 24 88 74 185 74zM437 732l45 -23c-19 -38 -54 -66 -95 -73c-9 -2 -18 -2 -28 -2c-29 0 -57 9 -82 27c-20 15 -45 21 -70 16
c-26 -5 -48 -23 -60 -47l-44 23c19 37 53 63 94 72c39 8 78 -1 110 -25c20 -14 46 -20 70 -15c26 5 49 22 60 47z" />
    <glyph glyph-name="oacute" unicode="&#xf3;" horiz-adv-x="693" 
d="M347 517c-136 0 -247 -111 -247 -247s111 -247 247 -247c135 0 246 111 246 247s-111 247 -246 247zM347 567c164 0 297 -132 297 -297s-133 -297 -297 -297c-165 0 -297 132 -297 297s132 297 297 297zM433 751l15 -57l-206 -64l-14 30z" />
    <glyph glyph-name="ocircumflex" unicode="&#xf4;" horiz-adv-x="693" 
d="M347 517c-136 0 -247 -111 -247 -247s111 -247 247 -247c135 0 246 111 246 247s-111 247 -246 247zM347 567c164 0 297 -132 297 -297s-133 -297 -297 -297c-165 0 -297 132 -297 297s132 297 297 297zM346 733l116 -66l-19 -28l-97 40l-98 -40l-19 28z" />
    <glyph glyph-name="odieresis" unicode="&#xf6;" horiz-adv-x="693" 
d="M347 517c-136 0 -247 -111 -247 -247s111 -247 247 -247c135 0 246 111 246 247s-111 247 -246 247zM347 567c164 0 297 -132 297 -297s-133 -297 -297 -297c-165 0 -297 132 -297 297s132 297 297 297zM460 693v-63h-63v63h63zM296 693v-63h-63v63h63z" />
    <glyph glyph-name="ograve" unicode="&#xf2;" horiz-adv-x="693" 
d="M347 517c-136 0 -247 -111 -247 -247s111 -247 247 -247c135 0 246 111 246 247s-111 247 -246 247zM347 567c164 0 297 -132 297 -297s-133 -297 -297 -297c-165 0 -297 132 -297 297s132 297 297 297zM270 751l205 -91l-14 -30l-206 64z" />
    <glyph glyph-name="otilde" unicode="&#xf5;" horiz-adv-x="693" 
d="M347 517c-136 0 -247 -111 -247 -247s111 -247 247 -247c135 0 246 111 246 247s-111 247 -246 247zM347 567c164 0 297 -132 297 -297s-133 -297 -297 -297c-165 0 -297 132 -297 297s132 297 297 297zM492 732l44 -23c-18 -38 -53 -66 -94 -73c-9 -2 -18 -2 -28 -2
c-29 0 -58 9 -82 27c-20 15 -45 21 -70 16c-26 -5 -48 -23 -60 -47l-44 23c18 37 53 63 94 72c39 8 78 -1 110 -25c20 -14 46 -20 70 -15c26 5 49 22 60 47z" />
    <glyph glyph-name="scaron" unicode="&#x161;" horiz-adv-x="549" 
d="M45 85l38 30c21 -29 79 -92 189 -92c97 0 178 36 178 127c0 62 -54 90 -184 115c-123 24 -201 55 -201 147c0 89 85 155 202 155c101 0 157 -35 211 -87l-35 -34c-36 37 -84 71 -173 71c-91 0 -155 -41 -155 -102c0 -57 42 -76 156 -101c106 -23 229 -41 229 -167
c0 -93 -81 -174 -228 -174c-98 0 -177 43 -227 112zM369 733l19 -28l-116 -66l-117 66l19 28l98 -40z" />
    <glyph glyph-name="uacute" unicode="&#xfa;" horiz-adv-x="617" 
d="M302 -26c-156 0 -235 84 -235 240v326h50v-335c0 -128 82 -181 182 -181c91 0 192 61 192 145v371h51v-540h-51v59c-10 -24 -93 -85 -189 -85zM395 751l15 -57l-206 -64l-14 30z" />
    <glyph glyph-name="ucircumflex" unicode="&#xfb;" horiz-adv-x="617" 
d="M302 -26c-156 0 -235 84 -235 240v326h50v-335c0 -128 82 -181 182 -181c91 0 192 61 192 145v371h51v-540h-51v59c-10 -24 -93 -85 -189 -85zM308 733l116 -66l-19 -28l-97 40l-98 -40l-19 28z" />
    <glyph glyph-name="udieresis" unicode="&#xfc;" horiz-adv-x="617" 
d="M302 -26c-156 0 -235 84 -235 240v326h50v-335c0 -128 82 -181 182 -181c91 0 192 61 192 145v371h51v-540h-51v59c-10 -24 -93 -85 -189 -85zM419 693v-63h-63v63h63zM256 693v-63h-63v63h63z" />
    <glyph glyph-name="ugrave" unicode="&#xf9;" horiz-adv-x="617" 
d="M302 -26c-156 0 -235 84 -235 240v326h50v-335c0 -128 82 -181 182 -181c91 0 192 61 192 145v371h51v-540h-51v59c-10 -24 -93 -85 -189 -85zM216 751l205 -91l-14 -30l-206 64z" />
    <glyph glyph-name="yacute" unicode="&#xfd;" horiz-adv-x="560" 
d="M473 540h54l-265 -656c-36 -88 -69 -145 -145 -145c-23 0 -48 9 -67 25l25 42c12 -9 31 -17 46 -17c50 0 74 64 106 143l30 73l-225 535h54l198 -467zM374 751l16 -57l-206 -64l-15 30z" />
    <glyph glyph-name="ydieresis" unicode="&#xff;" horiz-adv-x="560" 
d="M473 540h54l-265 -656c-36 -88 -69 -145 -145 -145c-23 0 -48 9 -67 25l25 42c12 -9 31 -17 46 -17c50 0 74 64 106 143l30 73l-225 535h54l198 -467zM393 693v-63h-63v63h63zM230 693v-63h-63v63h63z" />
    <glyph glyph-name="zcaron" unicode="&#x17e;" horiz-adv-x="549" 
d="M504 490l-394 -440h394v-50h-459v50l394 440h-394v50h459v-50zM373 733l19 -28l-117 -66l-117 66l19 28l98 -40z" />
    <glyph glyph-name="oneeighth" unicode="&#x215b;" horiz-adv-x="864" 
d="M685 157c-48 0 -81 -30 -81 -71c0 -38 31 -68 81 -68c51 0 81 30 81 68c0 41 -30 71 -81 71zM685 316c-44 0 -70 -26 -70 -59c0 -31 26 -55 70 -55c45 0 70 24 70 55c0 33 -25 59 -70 59zM685 360c68 0 117 -48 117 -103c0 -33 -16 -60 -40 -79c29 -17 49 -55 49 -90
c0 -65 -52 -115 -126 -115c-73 0 -126 50 -126 115c0 35 20 73 49 90c-23 19 -39 46 -39 79c0 55 48 103 116 103zM648 720l-437 -720h-58l438 720h57zM200 720v-360h-45v288l-51 -61l-34 28l85 105h45z" />
    <glyph glyph-name="threeeighths" unicode="&#x215c;" horiz-adv-x="909" 
d="M730 157c-48 0 -81 -30 -81 -71c0 -38 31 -68 81 -68c51 0 81 30 81 68c0 41 -30 71 -81 71zM730 316c-44 0 -70 -26 -70 -59c0 -31 26 -55 70 -55c45 0 70 24 70 55c0 33 -25 59 -70 59zM730 360c68 0 117 -48 117 -103c0 -33 -16 -60 -40 -79c29 -17 49 -55 49 -90
c0 -65 -52 -115 -126 -115c-73 0 -126 50 -126 115c0 35 20 73 49 90c-23 19 -39 46 -39 79c0 55 48 103 116 103zM693 720l-437 -720h-58l438 720h57zM102 637l-45 5c0 54 47 105 115 105c72 0 113 -51 113 -110c0 -31 -18 -65 -47 -77c39 -15 54 -55 54 -87
c0 -58 -45 -113 -118 -113c-69 0 -116 43 -121 105l45 5c3 -48 42 -65 74 -65c43 0 75 28 75 61c0 53 -35 70 -106 70v45c71 0 99 18 99 61c0 35 -25 60 -68 60c-32 0 -70 -19 -70 -65z" />
    <glyph glyph-name="fiveeighths" unicode="&#x215d;" horiz-adv-x="927" 
d="M748 157c-48 0 -81 -30 -81 -71c0 -38 31 -68 81 -68c51 0 81 30 81 68c0 41 -30 71 -81 71zM748 316c-44 0 -70 -26 -70 -59c0 -31 26 -55 70 -55c45 0 70 24 70 55c0 33 -25 59 -70 59zM748 360c68 0 117 -48 117 -103c0 -33 -16 -60 -40 -79c29 -17 49 -55 49 -90
c0 -65 -52 -115 -126 -115c-73 0 -126 50 -126 115c0 35 20 73 49 90c-23 19 -39 46 -39 79c0 55 48 103 116 103zM711 720l-437 -720h-58l438 720h57zM281 720v-45h-148l-11 -93c0 -1 15 20 66 20c86 0 121 -69 121 -125c0 -72 -54 -130 -127 -130c-72 0 -126 54 -126 130
h45c0 -44 31 -85 81 -85c46 0 82 39 82 86c0 44 -35 79 -80 79c-57 0 -78 -41 -78 -41l-43 4l28 200h190z" />
    <glyph glyph-name="seveneighths" unicode="&#x215e;" horiz-adv-x="936" 
d="M757 157c-48 0 -81 -30 -81 -71c0 -38 31 -68 81 -68c51 0 81 30 81 68c0 41 -30 71 -81 71zM757 316c-44 0 -70 -26 -70 -59c0 -31 26 -55 70 -55c45 0 70 24 70 55c0 33 -25 59 -70 59zM757 360c68 0 117 -48 117 -103c0 -33 -16 -60 -40 -79c29 -17 49 -55 49 -90
c0 -65 -52 -115 -126 -115c-73 0 -126 50 -126 115c0 35 20 73 49 90c-23 19 -39 46 -39 79c0 55 48 103 116 103zM720 720l-437 -720h-58l438 720h57zM303 675l-158 -315h-51l158 315h-181v45h232v-45z" />
    <glyph glyph-name="Euro" unicode="&#x20ac;" horiz-adv-x="790" 
d="M473 23c93 0 169 19 239 99l42 -27c-79 -88 -174 -122 -281 -122c-184 0 -337 129 -377 300h-55v50h47c-1 12 -2 24 -2 37s1 25 2 38h-47v50h55c41 171 194 299 377 299c107 0 202 -34 281 -122l-42 -26c-70 79 -146 99 -239 99c-155 0 -287 -106 -325 -250h325v-50h-335
c-1 -13 -2 -25 -2 -38s1 -25 2 -37h308v-50h-298c37 -144 170 -250 325 -250z" />
    <glyph glyph-name="uni00B2" unicode="&#xb2;" horiz-adv-x="387" 
d="M125 714l-45 6c0 60 50 104 110 104s110 -40 110 -101c0 -36 -15 -69 -50 -107l-110 -121h160v-45h-220v45l133 146c29 32 42 55 42 82c0 36 -29 56 -65 56c-35 0 -65 -29 -65 -65z" />
    <glyph glyph-name="uni00B3" unicode="&#xb3;" horiz-adv-x="342" 
d="M102 714l-45 4c0 54 47 106 115 106c72 0 113 -52 113 -110c0 -32 -18 -65 -47 -78c39 -14 54 -55 54 -87c0 -58 -45 -112 -118 -112c-69 0 -116 43 -121 105l45 4c3 -47 42 -64 74 -64c43 0 75 27 75 61c0 53 -35 69 -106 69v45c71 0 99 18 99 61c0 35 -25 61 -68 61
c-32 0 -70 -19 -70 -65z" />
    <glyph glyph-name="uni00B9" unicode="&#xb9;" horiz-adv-x="297" 
d="M200 810v-360h-45v288l-51 -61l-34 28l85 105h45z" />
    <glyph glyph-name="Abreve" unicode="&#x102;" horiz-adv-x="733" 
d="M367 653l-186 -430h372zM704 0h-55l-75 173h-416l-74 -173h-55l313 720h50zM473 967h50c0 -87 -69 -157 -156 -157c-86 0 -156 70 -156 157h49c0 -60 48 -107 107 -107s106 47 106 107z" />
    <glyph glyph-name="Amacron" unicode="&#x100;" horiz-adv-x="733" 
d="M367 653l-186 -430h372zM704 0h-55l-75 173h-416l-74 -173h-55l313 720h50zM483 860v-50h-234v50h234z" />
    <glyph glyph-name="Aogonek" unicode="&#x104;" horiz-adv-x="733" 
d="M367 653l-186 -430h372zM680 -177l36 -32c-33 -48 -99 -60 -148 -27c-49 34 -59 91 -34 149c2 7 30 60 106 109l-66 151h-416l-74 -173h-55l313 720h50l312 -720c-28 -14 -68 -36 -99 -71c-42 -49 -50 -95 -8 -124c25 -18 65 -8 83 18z" />
    <glyph glyph-name="Aringacute" unicode="&#x1fa;" horiz-adv-x="733" 
d="M367 653l-186 -430h372zM704 0h-55l-75 173h-416l-74 -173h-55l313 720h50zM366 977c-32 0 -58 -26 -58 -59s26 -58 58 -58c33 0 59 25 59 58s-26 59 -59 59zM366 1026c60 0 108 -48 108 -108c0 -59 -48 -108 -108 -108s-108 49 -108 108c0 60 48 108 108 108zM454 1192
l15 -48l-206 -64l-15 48z" />
    <glyph glyph-name="AEacute" unicode="&#x1fc;" horiz-adv-x="950" 
d="M447 627l-231 -404h232zM877 720v-50h-379v-285h328v-50h-328v-285h379l-2 -50h-426l-1 173h-261l-99 -173h-56l415 720h430zM562 931l15 -57l-206 -64l-15 30z" />
    <glyph glyph-name="Cacute" unicode="&#x106;" horiz-adv-x="754" 
d="M676 122l42 -27c-79 -88 -174 -122 -281 -122c-214 0 -387 174 -387 387s173 387 387 387c107 0 202 -34 281 -122l-42 -26c-70 79 -146 99 -239 99c-186 0 -337 -152 -337 -338s151 -337 337 -337c93 0 169 19 239 99zM526 931l15 -57l-206 -64l-15 30z" />
    <glyph glyph-name="Ccaron" unicode="&#x10c;" horiz-adv-x="754" 
d="M676 122l42 -27c-79 -88 -174 -122 -281 -122c-214 0 -387 174 -387 387s173 387 387 387c107 0 202 -34 281 -122l-42 -26c-70 79 -146 99 -239 99c-186 0 -337 -152 -337 -338s151 -337 337 -337c93 0 169 19 239 99zM535 913l19 -28l-117 -66l-117 66l19 28l98 -40z
" />
    <glyph glyph-name="Cdotaccent" unicode="&#x10a;" horiz-adv-x="754" 
d="M676 122l42 -27c-79 -88 -174 -122 -281 -122c-214 0 -387 174 -387 387s173 387 387 387c107 0 202 -34 281 -122l-42 -26c-70 79 -146 99 -239 99c-186 0 -337 -152 -337 -338s151 -337 337 -337c93 0 169 19 239 99zM473 882v-72h-72v72h72z" />
    <glyph glyph-name="Dcaron" unicode="&#x10e;" horiz-adv-x="689" 
d="M277 670h-148v-620h148c171 0 311 139 311 310s-140 310 -311 310zM78 720h199c199 0 360 -161 360 -360s-161 -360 -360 -360h-199v720zM391 913l19 -28l-117 -66l-117 66l19 28l98 -40z" />
    <glyph glyph-name="Dcroat" unicode="&#x110;" horiz-adv-x="707" 
d="M147 50h148c171 0 311 139 311 310s-140 310 -311 310h-148v-285h90v-49h-90v-286zM96 720h199c199 0 360 -161 360 -360s-161 -360 -360 -360h-199v336h-54v49h54v335z" />
    <glyph glyph-name="Ecaron" unicode="&#x11a;" 
d="M508 720v-50h-379v-285h328v-50h-328v-285h379v-50h-430v720h430zM391 913l19 -28l-117 -66l-117 66l19 28l98 -40z" />
    <glyph glyph-name="Edotaccent" unicode="&#x116;" 
d="M508 720v-50h-379v-285h328v-50h-328v-285h379v-50h-430v720h430zM329 882v-72h-72v72h72z" />
    <glyph glyph-name="Emacron" unicode="&#x112;" 
d="M508 720v-50h-379v-285h328v-50h-328v-285h379v-50h-430v720h430zM410 860v-50h-234v50h234z" />
    <glyph glyph-name="Eogonek" unicode="&#x118;" 
d="M478 -176l40 -33c-33 -48 -99 -60 -148 -27c-23 16 -39 39 -45 66c-14 59 24 122 85 170h-332v720h430v-50h-379v-285h328v-50h-328v-285h379v-50c-28 -14 -70 -36 -101 -71c-42 -49 -50 -95 -8 -124c25 -18 61 -8 79 19z" />
    <glyph glyph-name="Gbreve" unicode="&#x11e;" horiz-adv-x="783" 
d="M433 311v51h299v-248c-52 -73 -151 -141 -296 -141c-215 0 -387 174 -387 387s172 387 387 387c102 0 197 -40 266 -111l-37 -30c-62 65 -143 91 -229 91c-187 0 -337 -151 -337 -337s150 -337 337 -337c121 0 210 55 245 112v176h-248zM539 967h50
c0 -87 -70 -157 -156 -157s-157 70 -157 157h50c0 -60 48 -107 107 -107c58 0 106 47 106 107z" />
    <glyph glyph-name="Gcommaaccent" unicode="&#x122;" horiz-adv-x="783" 
d="M433 311v51h299v-248c-52 -73 -151 -141 -296 -141c-215 0 -387 174 -387 387s172 387 387 387c102 0 197 -40 266 -111l-37 -30c-62 65 -143 91 -229 91c-187 0 -337 -151 -337 -337s150 -337 337 -337c121 0 210 55 245 112v176h-248zM469 -81v-71
c0 -29 -11 -60 -37 -82l-33 30c20 14 27 28 28 52h-30v71h72z" />
    <glyph glyph-name="Gdotaccent" unicode="&#x120;" horiz-adv-x="783" 
d="M433 311v51h299v-248c-52 -73 -151 -141 -296 -141c-215 0 -387 174 -387 387s172 387 387 387c102 0 197 -40 266 -111l-37 -30c-62 65 -143 91 -229 91c-187 0 -337 -151 -337 -337s150 -337 337 -337c121 0 210 55 245 112v176h-248zM469 882v-72h-72v72h72z" />
    <glyph glyph-name="Hbar" unicode="&#x126;" horiz-adv-x="706" 
d="M136 385h432v167h-432v-167zM618 602h46v-50h-46v-552h-50v335h-432v-335h-50v552h-45v50h45v118h50v-118h432v118h50v-118z" />
    <glyph glyph-name="IJ" unicode="&#x132;" horiz-adv-x="657" 
d="M581 720v-528c0 -119 -99 -219 -219 -219c-58 0 -121 23 -158 70l39 30c30 -38 75 -50 120 -50c94 0 169 74 169 169v528h49zM130 720v-720h-51v720h51z" />
    <glyph glyph-name="Idotaccent" unicode="&#x130;" horiz-adv-x="209" 
d="M130 720v-720h-51v720h51zM140 882v-72h-72v72h72z" />
    <glyph glyph-name="Imacron" unicode="&#x12a;" horiz-adv-x="209" 
d="M130 720v-720h-51v720h51zM221 860v-50h-234v50h234z" />
    <glyph glyph-name="Iogonek" unicode="&#x12e;" horiz-adv-x="209" 
d="M102 -176l40 -33c-33 -48 -99 -60 -148 -27c-24 16 -39 39 -45 66c-18 73 45 151 130 200v690h51v-720c-28 -14 -68 -36 -99 -71c-42 -49 -50 -95 -8 -124c25 -18 61 -8 79 19z" />
    <glyph glyph-name="Kcommaaccent" unicode="&#x136;" horiz-adv-x="599" 
d="M560 720l-387 -360l387 -360h-68l-364 338v-338h-51v720h51v-337l364 337h68zM320 -81v-71c0 -29 -11 -60 -37 -82l-34 30c20 14 27 28 28 52h-29v71h72z" />
    <glyph glyph-name="Lacute" unicode="&#x139;" horiz-adv-x="551" 
d="M127 720v-670h371v-50h-421v720h50zM239 931l16 -57l-206 -64l-15 30z" />
    <glyph glyph-name="Lcaron" unicode="&#x13d;" horiz-adv-x="551" 
d="M127 720v-670h371v-50h-421v720h50zM498 720v-71c0 -29 -11 -59 -37 -82l-33 30c19 14 27 29 27 52h-29v71h72z" />
    <glyph glyph-name="Lcommaaccent" unicode="&#x13b;" horiz-adv-x="551" 
d="M127 720v-670h371v-50h-421v720h50zM315 -81v-71c0 -29 -11 -60 -37 -82l-33 30c20 14 27 28 28 52h-30v71h72z" />
    <glyph glyph-name="Ldot" unicode="&#x13f;" horiz-adv-x="551" 
d="M127 720v-670h371v-50h-421v720h50zM498 410v-72h-72v72h72z" />
    <glyph glyph-name="Nacute" unicode="&#x143;" horiz-adv-x="709" 
d="M128 720l453 -631v631h51v-720h-51l-453 631v-631h-51v720h51zM441 931l15 -57l-206 -64l-14 30z" />
    <glyph glyph-name="Ncaron" unicode="&#x147;" horiz-adv-x="709" 
d="M128 720l453 -631v631h51v-720h-51l-453 631v-631h-51v720h51zM453 913l19 -28l-116 -66l-117 66l18 28l99 -40z" />
    <glyph glyph-name="Ncommaaccent" unicode="&#x145;" horiz-adv-x="709" 
d="M128 720l453 -631v631h51v-720h-51l-453 631v-631h-51v720h51zM392 -81v-71c0 -29 -11 -60 -37 -82l-34 30c20 14 27 28 28 52h-29v71h72z" />
    <glyph glyph-name="Eng" unicode="&#x14a;" horiz-adv-x="709" 
d="M581 89v631h51v-798c0 -119 -97 -219 -218 -219c-31 0 -75 11 -100 33l30 40c20 -17 48 -24 71 -24c94 0 166 75 166 170v78l-453 631v-631h-51v720h51z" />
    <glyph glyph-name="Ohungarumlaut" unicode="&#x150;" horiz-adv-x="873" 
d="M437 697c-187 0 -337 -152 -337 -337s151 -337 337 -337c185 0 336 152 336 337s-150 337 -336 337zM437 747c213 0 387 -174 387 -387s-174 -387 -387 -387c-214 0 -387 174 -387 387s173 387 387 387zM617 982l33 -36l-150 -136l-20 23zM410 982l33 -36l-150 -136
l-20 23z" />
    <glyph glyph-name="Omacron" unicode="&#x14c;" horiz-adv-x="873" 
d="M437 697c-186 0 -337 -152 -337 -337s151 -337 337 -337c185 0 336 152 336 337s-151 337 -336 337zM437 747c213 0 387 -174 387 -387s-174 -387 -387 -387c-214 0 -387 174 -387 387s173 387 387 387zM554 860v-50h-234v50h234z" />
    <glyph glyph-name="Racute" unicode="&#x154;" horiz-adv-x="594" 
d="M291 670h-162v-350h161c114 0 193 79 193 175s-78 175 -192 175zM533 495c0 -108 -77 -198 -190 -220l182 -275h-61l-177 270h-158v-270h-51v720h213c142 0 242 -102 242 -225zM361 931l15 -57l-206 -64l-14 30z" />
    <glyph glyph-name="Rcaron" unicode="&#x158;" horiz-adv-x="594" 
d="M291 670h-162v-350h161c114 0 193 79 193 175s-78 175 -192 175zM533 495c0 -108 -77 -198 -190 -220l182 -275h-61l-177 270h-158v-270h-51v720h213c142 0 242 -102 242 -225zM358 913l19 -28l-116 -66l-117 66l19 28l98 -40z" />
    <glyph glyph-name="Rcommaaccent" unicode="&#x156;" horiz-adv-x="594" 
d="M291 670h-162v-350h161c114 0 193 79 193 175s-78 175 -192 175zM533 495c0 -108 -77 -198 -190 -220l182 -275h-61l-177 270h-158v-270h-51v720h213c142 0 242 -102 242 -225zM302 -81v-71c0 -29 -11 -60 -37 -82l-34 30c20 14 27 28 28 52h-29v71h72z" />
    <glyph glyph-name="Sacute" unicode="&#x15a;" horiz-adv-x="630" 
d="M281 366c-113 23 -204 60 -203 175c1 120 97 206 238 206c107 0 193 -48 229 -146l-38 -24c-22 55 -66 120 -187 120c-126 0 -191 -61 -191 -153c-1 -98 67 -111 227 -145c114 -25 224 -53 223 -210c-1 -116 -104 -216 -259 -216c-144 0 -232 89 -270 180l41 25
c25 -57 85 -155 229 -155c123 0 207 72 207 172c1 108 -63 134 -246 171zM404 931l15 -57l-206 -64l-14 30z" />
    <glyph glyph-name="Scedilla" unicode="&#x15e;" horiz-adv-x="630" 
d="M356 399c114 -25 224 -53 223 -210c-1 -112 -96 -208 -241 -215v-62c49 -9 86 -52 86 -104c0 -57 -47 -105 -105 -105s-101 39 -106 96l40 9c0 -36 30 -65 66 -65s65 29 65 65s-29 66 -65 66h-20v100c-132 8 -213 93 -249 179l41 25c25 -57 85 -155 229 -155
c123 0 207 72 207 172c1 108 -63 134 -246 171c-113 23 -204 60 -203 175c1 120 97 206 238 206c107 0 193 -48 229 -146l-38 -24c-22 55 -66 120 -187 120c-126 0 -191 -61 -191 -153c-1 -98 67 -111 227 -145z" />
    <glyph glyph-name="Scommaaccent" unicode="&#x218;" horiz-adv-x="630" 
d="M281 366c-113 23 -204 60 -203 175c1 120 97 206 238 206c107 0 193 -48 229 -146l-38 -24c-22 55 -66 120 -187 120c-126 0 -191 -61 -191 -153c-1 -98 67 -111 227 -145c114 -25 224 -53 223 -210c-1 -116 -104 -216 -259 -216c-144 0 -232 89 -270 180l41 25
c25 -57 85 -155 229 -155c123 0 207 72 207 172c1 108 -63 134 -246 171zM356 -81v-71c0 -29 -11 -60 -37 -82l-34 30c20 14 27 28 28 52h-29v71h72z" />
    <glyph glyph-name="Tbar" unicode="&#x166;" horiz-adv-x="612" 
d="M565 720v-50h-235v-320h129v-50h-129v-300h-50v300h-127v50h127v320h-233v50h518z" />
    <glyph glyph-name="Tcaron" unicode="&#x164;" horiz-adv-x="612" 
d="M565 720v-50h-235v-670h-50v670h-233v50h518zM403 913l19 -28l-116 -66l-117 66l19 28l98 -40z" />
    <glyph glyph-name="uni0162" unicode="&#x162;" horiz-adv-x="612" 
d="M330 670v-670h-5v-88c49 -9 85 -52 85 -104c0 -57 -46 -105 -105 -105c-57 0 -101 39 -105 96l39 9c0 -36 30 -65 66 -65s66 29 66 65s-30 66 -66 66h-20v126h-5v670h-233v50h518v-50h-235z" />
    <glyph glyph-name="uni021A" unicode="&#x21a;" horiz-adv-x="612" 
d="M565 720v-50h-235v-670h-50v670h-233v50h518zM342 -81v-71c0 -29 -11 -60 -37 -82l-33 30c20 14 27 28 28 52h-30v71h72z" />
    <glyph glyph-name="Uhungarumlaut" unicode="&#x170;" horiz-adv-x="706" 
d="M519 982l34 -36l-151 -136l-19 23zM312 982l34 -36l-151 -136l-19 23zM630 720v-474c0 -162 -133 -273 -277 -273s-277 111 -277 273v474h50v-474c0 -138 107 -223 227 -223s227 85 227 223v474h50z" />
    <glyph glyph-name="Umacron" unicode="&#x16a;" horiz-adv-x="706" 
d="M630 720v-474c0 -162 -133 -273 -277 -273s-277 111 -277 273v474h50v-474c0 -138 107 -223 227 -223s227 85 227 223v474h50zM470 861v-50h-234v50h234z" />
    <glyph glyph-name="Uogonek" unicode="&#x172;" horiz-adv-x="706" 
d="M580 246v474h50v-474c0 -133 -89 -231 -200 -262c-36 -14 -64 -36 -80 -55c-40 -46 -48 -96 -8 -124c25 -18 61 -3 79 23l41 -37c-34 -48 -99 -60 -149 -27c-23 16 -39 39 -45 66c-13 54 17 112 60 144c-132 10 -252 118 -252 272v474h50v-474c0 -138 107 -223 227 -223
s227 85 227 223z" />
    <glyph glyph-name="Uring" unicode="&#x16e;" horiz-adv-x="706" 
d="M630 720v-474c0 -162 -133 -273 -277 -273s-277 111 -277 273v474h50v-474c0 -138 107 -223 227 -223s227 85 227 223v474h50zM353 977c-33 0 -59 -26 -59 -59s26 -58 59 -58c32 0 58 25 58 58s-26 59 -58 59zM353 1026c59 0 108 -48 108 -108c0 -59 -49 -108 -108 -108
c-60 0 -108 49 -108 108c0 60 48 108 108 108z" />
    <glyph glyph-name="Wacute" unicode="&#x1e82;" horiz-adv-x="1053" 
d="M1017 720l-254 -720h-50l-186 627l-189 -627h-50l-252 720h53l224 -630l188 630h51l186 -630l226 630h53zM613 931l15 -57l-206 -64l-14 30z" />
    <glyph glyph-name="Wcircumflex" unicode="&#x174;" horiz-adv-x="1053" 
d="M1017 720l-254 -720h-50l-186 627l-189 -627h-50l-252 720h53l224 -630l188 630h51l186 -630l226 630h53zM527 913l117 -66l-19 -28l-98 40l-98 -40l-19 28z" />
    <glyph glyph-name="Wdieresis" unicode="&#x1e84;" horiz-adv-x="1053" 
d="M1017 720l-254 -720h-50l-186 627l-189 -627h-50l-252 720h53l224 -630l188 630h51l186 -630l226 630h53zM640 873v-63h-63v63h63zM476 873v-63h-63v63h63z" />
    <glyph glyph-name="Wgrave" unicode="&#x1e80;" horiz-adv-x="1053" 
d="M1017 720l-254 -720h-50l-186 627l-189 -627h-50l-252 720h53l224 -630l188 630h51l186 -630l226 630h53zM441 931l205 -91l-14 -30l-206 64z" />
    <glyph glyph-name="Ycircumflex" unicode="&#x176;" horiz-adv-x="628" 
d="M599 720l-261 -387v-333h-50v336l-258 384h59l225 -335l225 335h60zM315 913l116 -66l-19 -28l-97 40l-98 -40l-19 28z" />
    <glyph glyph-name="Ygrave" unicode="&#x1ef2;" horiz-adv-x="628" 
d="M599 720l-261 -387v-333h-50v336l-258 384h59l225 -335l225 335h60zM220 931l205 -91l-15 -30l-206 64z" />
    <glyph glyph-name="Zacute" unicode="&#x179;" horiz-adv-x="635" 
d="M576 670l-456 -620h456v-50h-517v50l456 620h-456v50h517v-50zM411 931l16 -57l-206 -64l-15 30z" />
    <glyph glyph-name="Zdotaccent" unicode="&#x17b;" horiz-adv-x="635" 
d="M576 670l-456 -620h456v-50h-517v50l456 620h-456v50h517v-50zM353 882v-72h-72v72h72z" />
    <glyph glyph-name="abreve" unicode="&#x103;" horiz-adv-x="623" 
d="M268 23c123 0 238 74 236 151c-1 22 0 61 -2 86c2 1 -98 23 -188 27c-135 5 -211 -38 -211 -128c0 -97 83 -136 165 -136zM554 224v-224h-51v72c-22 -38 -137 -99 -234 -99c-122 0 -217 65 -217 180c0 98 58 194 267 185c82 -4 151 -20 182 -27c-8 86 -40 206 -202 206
c-85 0 -159 -37 -189 -60l-26 41c63 47 151 69 206 69c114 0 179 -39 216 -96c39 -61 48 -140 48 -247zM419 787h49c0 -87 -69 -157 -156 -157c-86 0 -156 70 -156 157h49c0 -60 48 -107 107 -107s107 47 107 107z" />
    <glyph glyph-name="amacron" unicode="&#x101;" horiz-adv-x="623" 
d="M268 23c123 0 238 74 236 151c-1 22 0 61 -2 86c2 1 -98 23 -188 27c-135 5 -211 -38 -211 -128c0 -97 83 -136 165 -136zM554 224v-224h-51v72c-22 -38 -137 -99 -234 -99c-122 0 -217 65 -217 180c0 98 58 194 267 185c82 -4 151 -20 182 -27c-8 86 -40 206 -202 206
c-85 0 -159 -37 -189 -60l-26 41c63 47 151 69 206 69c114 0 179 -39 216 -96c39 -61 48 -140 48 -247zM429 680v-50h-234v50h234z" />
    <glyph glyph-name="aogonek" unicode="&#x105;" horiz-adv-x="623" 
d="M268 23c123 0 238 74 236 151c-1 22 0 61 -2 86c2 1 -98 23 -188 27c-135 5 -211 -38 -211 -128c0 -97 83 -136 165 -136zM530 -176l36 -33c-33 -48 -99 -60 -148 -27c-24 16 -39 39 -45 66c-18 73 45 151 130 200v42c-22 -38 -137 -99 -234 -99c-122 0 -217 65 -217 180
c0 98 58 194 267 185c82 -4 151 -20 182 -27c-8 86 -40 206 -202 206c-85 0 -159 -37 -189 -60l-26 41c63 47 151 69 206 69c114 0 179 -39 216 -96c39 -61 48 -140 48 -247v-224c-28 -14 -68 -36 -99 -71c-42 -46 -48 -96 -9 -124c26 -18 66 -8 84 19z" />
    <glyph glyph-name="aringacute" unicode="&#x1fb;" horiz-adv-x="623" 
d="M268 23c123 0 238 74 236 151c-1 22 0 61 -2 86c2 1 -98 23 -188 27c-135 5 -211 -38 -211 -128c0 -97 83 -136 165 -136zM554 224v-224h-51v72c-22 -38 -137 -99 -234 -99c-122 0 -217 65 -217 180c0 98 58 194 267 185c82 -4 151 -20 182 -27c-8 86 -40 206 -202 206
c-85 0 -159 -37 -189 -60l-26 41c63 47 151 69 206 69c114 0 179 -39 216 -96c39 -61 48 -140 48 -247zM309 797c-33 0 -59 -26 -59 -59s26 -58 59 -58c32 0 58 25 58 58s-26 59 -58 59zM309 846c59 0 108 -48 108 -108c0 -59 -49 -108 -108 -108c-61 0 -108 49 -108 108
c0 60 47 108 108 108zM404 1021l15 -57l-206 -64l-14 30z" />
    <glyph glyph-name="aeacute" unicode="&#x1fd;" horiz-adv-x="1105" 
d="M268 23c123 0 238 74 236 151c-1 47 0 53 -2 86c2 1 -98 23 -188 27c-135 5 -211 -38 -211 -128c0 -97 83 -136 165 -136zM554 298h458c-4 119 -96 219 -223 219c-142 0 -233 -117 -235 -219zM1063 290c0 -20 -2 -31 -4 -42h-505c10 -127 102 -225 237 -225
c104 0 168 58 201 102l46 -23c-54 -72 -135 -129 -247 -129c-111 0 -201 58 -250 144c-34 -69 -135 -144 -272 -144c-122 0 -217 65 -217 180c0 98 58 194 267 185c82 -4 151 -20 182 -27c-8 86 -40 206 -202 206c-85 0 -159 -37 -189 -60l-26 41c63 47 151 69 206 69
c114 0 179 -39 216 -96c12 -19 21 -40 29 -62c46 94 140 158 252 158c155 0 276 -112 276 -277zM607 751l15 -57l-206 -64l-15 30z" />
    <glyph glyph-name="cacute" unicode="&#x107;" horiz-adv-x="616" 
d="M537 117l42 -25c-59 -81 -133 -119 -231 -119c-163 0 -298 132 -298 297s135 297 298 297c98 0 173 -38 231 -119l-42 -25c-29 42 -88 94 -186 94c-146 0 -250 -107 -250 -247c0 -136 104 -247 250 -247c98 0 157 52 186 94zM431 751l15 -57l-206 -64l-14 30z" />
    <glyph glyph-name="ccaron" unicode="&#x10d;" horiz-adv-x="616" 
d="M537 117l42 -25c-59 -81 -133 -119 -231 -119c-163 0 -298 132 -298 297s135 297 298 297c98 0 173 -38 231 -119l-42 -25c-29 42 -88 94 -186 94c-146 0 -250 -107 -250 -247c0 -136 104 -247 250 -247c98 0 157 52 186 94zM445 733l19 -28l-117 -66l-117 66l19 28
l98 -40z" />
    <glyph glyph-name="cdotaccent" unicode="&#x10b;" horiz-adv-x="616" 
d="M537 117l42 -25c-59 -81 -133 -119 -231 -119c-163 0 -298 132 -298 297s135 297 298 297c98 0 173 -38 231 -119l-42 -25c-29 42 -88 94 -186 94c-146 0 -250 -107 -250 -247c0 -136 104 -247 250 -247c98 0 157 52 186 94zM386 702v-72h-72v72h72z" />
    <glyph glyph-name="dcaron" unicode="&#x10f;" horiz-adv-x="752" 
d="M327 516c-152 0 -228 -120 -228 -247c0 -113 72 -246 219 -246c115 0 183 62 205 114v264c-27 54 -91 115 -196 115zM523 478v242h50v-720h-50v55c-37 -46 -119 -82 -205 -82c-157 0 -269 125 -269 299c0 165 102 294 278 294c76 0 148 -31 196 -88zM698 720v-71
c0 -29 -11 -59 -37 -82l-34 30c20 14 27 29 28 52h-29v71h72z" />
    <glyph glyph-name="dcroat" unicode="&#x111;" horiz-adv-x="666" 
d="M523 137v264c-27 54 -91 115 -196 115c-152 0 -228 -120 -228 -247c0 -113 72 -246 219 -246c115 0 183 62 205 114zM573 646h54v-50h-54v-596h-50v55c-37 -46 -119 -82 -205 -82c-157 0 -269 125 -269 299c0 165 102 294 278 294c76 0 148 -31 196 -88v118h-55v50h55v74
h50v-74z" />
    <glyph glyph-name="ecaron" unicode="&#x11b;" horiz-adv-x="648" 
d="M97 298h457c-3 119 -95 219 -222 219c-142 0 -233 -117 -235 -219zM535 125l46 -23c-54 -72 -135 -129 -247 -129c-169 0 -289 132 -289 297s124 297 284 297c156 0 277 -112 277 -277c0 -20 -2 -31 -4 -42h-505c10 -127 102 -225 237 -225c103 0 168 58 201 102z
M429 733l19 -28l-116 -66l-117 66l19 28l98 -40z" />
    <glyph glyph-name="edotaccent" unicode="&#x117;" horiz-adv-x="648" 
d="M97 298h457c-3 119 -95 219 -222 219c-142 0 -233 -117 -235 -219zM535 125l46 -23c-54 -72 -135 -129 -247 -129c-169 0 -289 132 -289 297s124 297 284 297c156 0 277 -112 277 -277c0 -20 -2 -31 -4 -42h-505c10 -127 102 -225 237 -225c103 0 168 58 201 102z
M368 702v-72h-72v72h72z" />
    <glyph glyph-name="emacron" unicode="&#x113;" horiz-adv-x="648" 
d="M97 298h457c-3 119 -95 219 -222 219c-142 0 -233 -117 -235 -219zM535 125l46 -23c-54 -72 -135 -129 -247 -129c-169 0 -289 132 -289 297s124 297 284 297c156 0 277 -112 277 -277c0 -20 -2 -31 -4 -42h-505c10 -127 102 -225 237 -225c103 0 168 58 201 102z
M446 680v-50h-234v50h234z" />
    <glyph glyph-name="eogonek" unicode="&#x119;" horiz-adv-x="648" 
d="M97 298h457c-3 119 -95 219 -222 219c-142 0 -233 -117 -235 -219zM606 290c0 -20 -2 -31 -4 -42h-505c10 -127 102 -225 237 -225c103 0 168 58 201 102l46 -23c-36 -46 -81 -87 -139 -109c-53 -21 -86 -35 -112 -64c-41 -46 -47 -96 -8 -124c25 -18 61 -8 79 19l41 -33
c-33 -48 -99 -60 -149 -27c-23 16 -38 39 -45 66c-12 52 14 101 58 144h1c-155 13 -262 140 -262 296c0 165 124 297 284 297c156 0 277 -112 277 -277z" />
    <glyph glyph-name="gbreve" unicode="&#x11f;" horiz-adv-x="657" 
d="M333 24c97 0 167 39 197 103v277c-33 78 -129 113 -197 113c-148 0 -235 -128 -235 -246c0 -130 87 -247 235 -247zM530 491v49h51v-505c0 -186 -122 -296 -268 -296c-131 0 -204 63 -233 95l40 33c20 -24 79 -78 191 -78c140 0 219 109 219 234v21
c-40 -39 -114 -70 -193 -70c-171 0 -289 129 -289 294c0 174 134 299 287 299c86 0 154 -32 195 -76zM442 787h49c0 -87 -69 -157 -155 -157c-87 0 -157 70 -157 157h50c0 -60 47 -107 107 -107c58 0 106 47 106 107z" />
    <glyph glyph-name="gcommaaccent" unicode="&#x123;" horiz-adv-x="657" 
d="M333 24c97 0 167 39 197 103v277c-33 78 -129 113 -197 113c-148 0 -235 -128 -235 -246c0 -130 87 -247 235 -247zM530 491v49h51v-505c0 -186 -122 -296 -268 -296c-131 0 -204 63 -233 95l40 33c20 -24 79 -78 191 -78c140 0 219 109 219 234v21
c-40 -39 -114 -70 -193 -70c-171 0 -289 129 -289 294c0 174 134 299 287 299c86 0 154 -32 195 -76zM302 630v71c0 29 11 60 37 82l34 -30c-20 -14 -27 -28 -28 -52h29v-71h-72z" />
    <glyph glyph-name="gdotaccent" unicode="&#x121;" horiz-adv-x="657" 
d="M333 24c97 0 167 39 197 103v277c-33 78 -129 113 -197 113c-148 0 -235 -128 -235 -246c0 -130 87 -247 235 -247zM530 491v49h51v-505c0 -186 -122 -296 -268 -296c-131 0 -204 63 -233 95l40 33c20 -24 79 -78 191 -78c140 0 219 109 219 234v21
c-40 -39 -114 -70 -193 -70c-171 0 -289 129 -289 294c0 174 134 299 287 299c86 0 154 -32 195 -76zM373 702v-72h-72v72h72z" />
    <glyph glyph-name="hbar" unicode="&#x127;" horiz-adv-x="626" 
d="M333 566c111 0 227 -52 227 -281v-285h-51v299c0 146 -60 217 -178 217c-100 0 -187 -65 -187 -186v-330h-50v596h-54v50h54v74h50v-74h54v-50h-54v-127c21 40 87 97 189 97z" />
    <glyph glyph-name="ij" unicode="&#x133;" horiz-adv-x="373" 
d="M294 540v-585c0 -146 -35 -225 -154 -216c-36 3 -54 13 -71 19l20 46c15 -7 28 -12 45 -13c78 -5 110 21 110 164v585h50zM294 720v-90h-50v90h50zM130 540v-540h-51v540h51zM130 720v-90h-51v90h51z" />
    <glyph glyph-name="imacron" unicode="&#x12b;" horiz-adv-x="209" 
d="M130 540v-540h-51v540h51zM221 680v-50h-234v50h234z" />
    <glyph glyph-name="iogonek" unicode="&#x12f;" horiz-adv-x="209" 
d="M100 -176l40 -33c-33 -48 -99 -60 -148 -27c-24 16 -39 39 -45 66c-18 74 44 149 132 198v512h51v-540c-28 -14 -70 -36 -101 -71c-42 -46 -48 -96 -8 -124c25 -18 61 -8 79 19zM130 720v-90h-51v90h51z" />
    <glyph glyph-name="kcommaaccent" unicode="&#x137;" horiz-adv-x="545" 
d="M128 720v-427l309 247h74l-330 -266l330 -274h-74l-309 252v-252h-51v720h51zM279 -81v-71c0 -29 -11 -60 -37 -82l-33 30c20 14 27 28 28 52h-30v71h72z" />
    <glyph glyph-name="lacute" unicode="&#x13a;" horiz-adv-x="209" 
d="M130 720v-720h-51v720h51zM195 931l16 -57l-207 -64l-15 30z" />
    <glyph glyph-name="lcaron" unicode="&#x13e;" horiz-adv-x="356" 
d="M284 720v-71c0 -29 -11 -59 -37 -82l-34 30c20 14 27 29 28 52h-29v71h72zM130 720v-720h-51v720h51z" />
    <glyph glyph-name="lcommaaccent" unicode="&#x13c;" horiz-adv-x="209" 
d="M141 -81v-71c0 -29 -10 -60 -37 -82l-33 30c20 14 27 28 28 52h-30v71h72zM130 720v-720h-51v720h51z" />
    <glyph glyph-name="ldot" unicode="&#x140;" horiz-adv-x="360" 
d="M278 410v-72h-72v72h72zM130 720v-720h-51v720h51z" />
    <glyph glyph-name="nacute" unicode="&#x144;" horiz-adv-x="621" 
d="M311 566c155 0 240 -75 240 -231v-335h-51v344c0 128 -87 172 -187 172c-82 0 -187 -43 -187 -145v-371h-50v540h50v-48c15 24 88 74 185 74zM392 751l15 -57l-206 -64l-15 30z" />
    <glyph glyph-name="ncaron" unicode="&#x148;" horiz-adv-x="621" 
d="M311 566c155 0 240 -75 240 -231v-335h-51v344c0 128 -87 172 -187 172c-82 0 -187 -43 -187 -145v-371h-50v540h50v-48c15 24 88 74 185 74zM399 733l19 -28l-116 -66l-117 66l18 28l99 -40z" />
    <glyph glyph-name="ncommaaccent" unicode="&#x146;" horiz-adv-x="621" 
d="M311 566c155 0 240 -75 240 -231v-335h-51v344c0 128 -87 172 -187 172c-82 0 -187 -43 -187 -145v-371h-50v540h50v-48c15 24 88 74 185 74zM350 -81v-71c0 -29 -11 -60 -37 -82l-33 30c20 14 27 28 28 52h-30v71h72z" />
    <glyph glyph-name="eng" unicode="&#x14b;" horiz-adv-x="621" 
d="M311 566c155 0 240 -75 240 -231v-380c0 -146 -35 -225 -154 -216c-37 3 -55 13 -71 19l20 46c15 -7 28 -12 45 -13c77 -5 109 21 109 164v389c0 128 -87 172 -187 172c-82 0 -187 -43 -187 -145v-371h-50v540h50v-48c15 24 88 74 185 74z" />
    <glyph glyph-name="ohungarumlaut" unicode="&#x151;" horiz-adv-x="693" 
d="M527 802l33 -36l-150 -136l-20 23zM320 802l33 -36l-150 -136l-20 23zM347 517c-136 0 -247 -111 -247 -247s111 -247 247 -247c135 0 246 111 246 247s-111 247 -246 247zM347 567c164 0 297 -132 297 -297s-133 -297 -297 -297c-165 0 -297 132 -297 297
s132 297 297 297z" />
    <glyph glyph-name="omacron" unicode="&#x14d;" horiz-adv-x="693" 
d="M347 517c-136 0 -247 -111 -247 -247s111 -247 247 -247c135 0 246 111 246 247s-111 247 -246 247zM347 567c164 0 297 -132 297 -297s-133 -297 -297 -297c-165 0 -297 132 -297 297s132 297 297 297zM464 680v-50h-234v50h234z" />
    <glyph glyph-name="racute" unicode="&#x155;" horiz-adv-x="419" 
d="M286 566c36 0 67 -4 103 -31l-27 -44c-19 15 -42 25 -87 25c-72 0 -149 -65 -149 -150v-366h-50v540h50v-53c21 31 83 79 160 79zM302 751l16 -57l-206 -64l-15 30z" />
    <glyph glyph-name="rcaron" unicode="&#x159;" horiz-adv-x="419" 
d="M286 566c36 0 67 -4 103 -31l-27 -44c-19 15 -42 25 -87 25c-72 0 -149 -65 -149 -150v-366h-50v540h50v-53c21 31 83 79 160 79zM293 733l19 -28l-116 -66l-117 66l19 28l98 -40z" />
    <glyph glyph-name="rcommaaccent" unicode="&#x157;" horiz-adv-x="419" 
d="M286 566c36 0 67 -4 103 -31l-27 -44c-19 15 -42 25 -87 25c-72 0 -149 -65 -149 -150v-366h-50v540h50v-53c21 31 83 79 160 79zM137 -81v-71c0 -29 -11 -60 -37 -82l-33 30c19 14 27 28 28 52h-30v71h72z" />
    <glyph glyph-name="sacute" unicode="&#x15b;" horiz-adv-x="549" 
d="M45 85l38 30c21 -29 79 -92 189 -92c97 0 178 36 178 127c0 62 -54 90 -184 115c-123 24 -201 55 -201 147c0 89 85 155 202 155c101 0 157 -35 211 -87l-35 -34c-36 37 -84 71 -173 71c-91 0 -155 -41 -155 -102c0 -57 42 -76 156 -101c106 -23 229 -41 229 -167
c0 -93 -81 -174 -228 -174c-98 0 -177 43 -227 112zM362 751l15 -57l-206 -64l-14 30z" />
    <glyph glyph-name="scedilla" unicode="&#x15f;" horiz-adv-x="549" 
d="M500 147c0 -89 -73 -167 -209 -173v-62c48 -9 85 -52 85 -104c0 -57 -47 -105 -105 -105s-101 39 -105 96l39 9c0 -36 30 -65 66 -65s66 29 66 65s-30 66 -66 66h-20v100c-88 5 -160 47 -206 111l38 30c21 -29 79 -92 189 -92c97 0 178 36 178 127c0 62 -54 90 -184 115
c-123 24 -201 55 -201 147c0 89 85 155 202 155c101 0 157 -35 211 -87l-35 -34c-36 37 -84 71 -173 71c-91 0 -155 -41 -155 -102c0 -57 42 -76 156 -101c106 -23 229 -41 229 -167z" />
    <glyph glyph-name="scommaaccent" unicode="&#x219;" horiz-adv-x="549" 
d="M45 85l38 30c21 -29 79 -92 189 -92c97 0 178 36 178 127c0 62 -54 90 -184 115c-123 24 -201 55 -201 147c0 89 85 155 202 155c101 0 157 -35 211 -87l-35 -34c-36 37 -84 71 -173 71c-91 0 -155 -41 -155 -102c0 -57 42 -76 156 -101c106 -23 229 -41 229 -167
c0 -93 -81 -174 -228 -174c-98 0 -177 43 -227 112zM309 -81v-71c0 -29 -11 -60 -37 -82l-33 30c19 14 27 28 27 52h-29v71h72z" />
    <glyph glyph-name="tbar" unicode="&#x167;" horiz-adv-x="354" 
d="M290 43l14 -49c-117 -54 -191 -3 -191 130v152h-72v51h72v163h-72v50h72v180h50v-180h128v-50h-128v-163h128v-51h-128v-153c0 -104 56 -115 127 -80z" />
    <glyph glyph-name="tcaron" unicode="&#x165;" horiz-adv-x="443" 
d="M290 43l14 -49c-117 -54 -191 -3 -191 130v366h-72v50h72v180h50v-180h128v-50h-128v-367c0 -104 56 -115 127 -80zM393 720v-71c0 -29 -11 -59 -37 -82l-33 30c19 14 27 29 27 52h-29v71h72z" />
    <glyph glyph-name="uni0163" unicode="&#x163;" horiz-adv-x="354" 
d="M290 43v-131c49 -9 86 -52 86 -104c0 -57 -47 -105 -105 -105s-101 39 -106 96l40 9c0 -36 30 -65 66 -65s65 29 65 65s-29 66 -65 66h-20v102c-86 -18 -138 37 -138 148v366h-72v50h72v180h50v-180h128v-50h-128v-367c0 -104 56 -115 127 -80z" />
    <glyph glyph-name="uni021B" unicode="&#x21b;" horiz-adv-x="354" 
d="M290 43l14 -49c-117 -54 -191 -3 -191 130v366h-72v50h72v180h50v-180h128v-50h-128v-367c0 -104 56 -115 127 -80zM181 -81v-71c0 -29 -11 -60 -37 -82l-33 30c20 14 27 28 28 52h-30v71h72z" />
    <glyph glyph-name="uhungarumlaut" unicode="&#x171;" horiz-adv-x="617" 
d="M473 802l33 -36l-150 -136l-20 23zM266 802l33 -36l-150 -136l-20 23zM302 -26c-156 0 -235 84 -235 240v326h50v-335c0 -128 82 -181 182 -181c91 0 192 61 192 145v371h51v-540h-51v59c-10 -24 -93 -85 -189 -85z" />
    <glyph glyph-name="umacron" unicode="&#x16b;" horiz-adv-x="617" 
d="M302 -26c-156 0 -235 84 -235 240v326h50v-335c0 -128 82 -181 182 -181c91 0 192 61 192 145v371h51v-540h-51v59c-10 -24 -93 -85 -189 -85zM421 680v-50h-234v50h234z" />
    <glyph glyph-name="uogonek" unicode="&#x173;" horiz-adv-x="617" 
d="M518 -176l36 -33c-33 -48 -99 -60 -148 -27c-23 16 -39 39 -45 66c-18 73 46 150 130 199v30c-10 -24 -93 -85 -189 -85c-156 0 -235 84 -235 240v326h50v-335c0 -128 82 -181 182 -181c91 0 192 61 192 145v371h51v-540c-28 -14 -68 -36 -99 -71
c-42 -46 -48 -96 -8 -124c25 -18 65 -8 83 19z" />
    <glyph glyph-name="uring" unicode="&#x16f;" horiz-adv-x="617" 
d="M302 -26c-156 0 -235 84 -235 240v326h50v-335c0 -128 82 -181 182 -181c91 0 192 61 192 145v371h51v-540h-51v59c-10 -24 -93 -85 -189 -85zM306 797c-32 0 -58 -26 -58 -59s26 -58 58 -58s59 25 59 58s-27 59 -59 59zM306 846c59 0 108 -48 108 -108
c0 -59 -49 -108 -108 -108c-60 0 -108 49 -108 108c0 60 48 108 108 108z" />
    <glyph glyph-name="wacute" unicode="&#x1e83;" horiz-adv-x="893" 
d="M641 77l167 463h53l-195 -540h-50l-169 466l-169 -466h-50l-196 540h54l167 -463l167 463h54zM537 751l16 -57l-206 -64l-15 30z" />
    <glyph glyph-name="wcircumflex" unicode="&#x175;" horiz-adv-x="893" 
d="M641 77l167 463h53l-195 -540h-50l-169 466l-169 -466h-50l-196 540h54l167 -463l167 463h54zM447 733l116 -66l-18 -28l-98 40l-98 -40l-19 28z" />
    <glyph glyph-name="wdieresis" unicode="&#x1e85;" horiz-adv-x="893" 
d="M641 77l167 463h53l-195 -540h-50l-169 466l-169 -466h-50l-196 540h54l167 -463l167 463h54zM560 693v-63h-63v63h63zM396 693v-63h-63v63h63z" />
    <glyph glyph-name="wgrave" unicode="&#x1e81;" horiz-adv-x="893" 
d="M641 77l167 463h53l-195 -540h-50l-169 466l-169 -466h-50l-196 540h54l167 -463l167 463h54zM365 751l206 -91l-15 -30l-206 64z" />
    <glyph glyph-name="ycircumflex" unicode="&#x177;" horiz-adv-x="560" 
d="M473 540h54l-265 -656c-36 -88 -69 -145 -145 -145c-23 0 -48 9 -67 25l25 42c12 -9 31 -17 46 -17c50 0 74 64 106 143l30 73l-225 535h54l198 -467zM281 733l116 -66l-19 -28l-97 40l-98 -40l-19 28z" />
    <glyph glyph-name="ygrave" unicode="&#x1ef3;" horiz-adv-x="560" 
d="M473 540h54l-265 -656c-36 -88 -69 -145 -145 -145c-23 0 -48 9 -67 25l25 42c12 -9 31 -17 46 -17c50 0 74 64 106 143l30 73l-225 535h54l198 -467zM193 751l205 -91l-15 -30l-206 64z" />
    <glyph glyph-name="zacute" unicode="&#x17a;" horiz-adv-x="549" 
d="M504 490l-394 -440h394v-50h-459v50l394 440h-394v50h459v-50zM361 751l15 -57l-206 -64l-14 30z" />
    <glyph glyph-name="zdotaccent" unicode="&#x17c;" horiz-adv-x="549" 
d="M504 490l-394 -440h394v-50h-459v50l394 440h-394v50h459v-50zM311 702v-72h-72v72h72z" />
    <glyph glyph-name="a.ss01" horiz-adv-x="657" 
d="M347 516c-153 0 -237 -120 -237 -247c0 -113 74 -246 228 -246c115 0 174 62 196 114v264c-27 53 -82 115 -187 115zM534 482v58h50v-540h-50v55c-37 -46 -110 -82 -196 -82c-172 0 -279 125 -279 299c0 165 112 294 288 294c76 0 151 -35 187 -84z" />
    <glyph glyph-name="aacute.ss01" horiz-adv-x="657" 
d="M347 516c-153 0 -237 -120 -237 -247c0 -113 74 -246 228 -246c115 0 174 62 196 114v264c-27 53 -82 115 -187 115zM534 482v58h50v-540h-50v55c-37 -46 -110 -82 -196 -82c-172 0 -279 125 -279 299c0 165 112 294 288 294c76 0 151 -35 187 -84zM445 751l15 -57
l-206 -64l-15 30z" />
    <glyph glyph-name="abreve.ss01" horiz-adv-x="657" 
d="M347 516c-153 0 -237 -120 -237 -247c0 -113 74 -246 228 -246c115 0 174 62 196 114v264c-27 53 -82 115 -187 115zM534 482v58h50v-540h-50v55c-37 -46 -110 -82 -196 -82c-172 0 -279 125 -279 299c0 165 112 294 288 294c76 0 151 -35 187 -84zM464 787h49
c0 -87 -69 -157 -156 -157c-86 0 -156 70 -156 157h49c0 -60 48 -107 107 -107s107 47 107 107z" />
    <glyph glyph-name="acircumflex.ss01" horiz-adv-x="657" 
d="M347 516c-153 0 -237 -120 -237 -247c0 -113 74 -246 228 -246c115 0 174 62 196 114v264c-27 53 -82 115 -187 115zM534 482v58h50v-540h-50v55c-37 -46 -110 -82 -196 -82c-172 0 -279 125 -279 299c0 165 112 294 288 294c76 0 151 -35 187 -84zM356 733l116 -66
l-19 -28l-97 40l-99 -40l-18 28z" />
    <glyph glyph-name="adieresis.ss01" horiz-adv-x="657" 
d="M347 516c-153 0 -237 -120 -237 -247c0 -113 74 -246 228 -246c115 0 174 62 196 114v264c-27 53 -82 115 -187 115zM534 482v58h50v-540h-50v55c-37 -46 -110 -82 -196 -82c-172 0 -279 125 -279 299c0 165 112 294 288 294c76 0 151 -35 187 -84zM466 693v-63h-63v63
h63zM302 693v-63h-63v63h63z" />
    <glyph glyph-name="agrave.ss01" horiz-adv-x="657" 
d="M347 516c-153 0 -237 -120 -237 -247c0 -113 74 -246 228 -246c115 0 174 62 196 114v264c-27 53 -82 115 -187 115zM534 482v58h50v-540h-50v55c-37 -46 -110 -82 -196 -82c-172 0 -279 125 -279 299c0 165 112 294 288 294c76 0 151 -35 187 -84zM268 751l205 -91
l-14 -30l-206 64z" />
    <glyph glyph-name="amacron.ss01" horiz-adv-x="657" 
d="M347 516c-153 0 -237 -120 -237 -247c0 -113 74 -246 228 -246c115 0 174 62 196 114v264c-27 53 -82 115 -187 115zM534 482v58h50v-540h-50v55c-37 -46 -110 -82 -196 -82c-172 0 -279 125 -279 299c0 165 112 294 288 294c76 0 151 -35 187 -84zM470 680v-50h-234v50
h234z" />
    <glyph glyph-name="aogonek.ss01" horiz-adv-x="657" 
d="M338 23c115 0 174 62 196 114v264c-27 53 -82 115 -187 115c-153 0 -237 -120 -237 -247c0 -113 74 -246 228 -246zM561 -176l36 -33c-34 -48 -99 -60 -149 -27c-23 16 -38 39 -45 66c-18 72 46 151 131 200v25c-37 -46 -110 -82 -196 -82c-172 0 -279 125 -279 299
c0 165 112 294 288 294c76 0 151 -35 187 -84v58h50v-540c-28 -14 -67 -36 -99 -71c-41 -46 -48 -96 -8 -124c25 -18 66 -8 84 19z" />
    <glyph glyph-name="aring.ss01" horiz-adv-x="657" 
d="M347 516c-153 0 -237 -120 -237 -247c0 -113 74 -246 228 -246c115 0 174 62 196 114v264c-27 53 -82 115 -187 115zM534 482v58h50v-540h-50v55c-37 -46 -110 -82 -196 -82c-172 0 -279 125 -279 299c0 165 112 294 288 294c76 0 151 -35 187 -84zM354 797
c-33 0 -59 -26 -59 -59s26 -58 59 -58c32 0 58 25 58 58s-26 59 -58 59zM354 846c59 0 108 -48 108 -108c0 -59 -49 -108 -108 -108c-61 0 -108 49 -108 108c0 60 47 108 108 108z" />
    <glyph glyph-name="aringacute.ss01" horiz-adv-x="657" 
d="M347 516c-153 0 -237 -120 -237 -247c0 -113 74 -246 228 -246c115 0 174 62 196 114v264c-27 53 -82 115 -187 115zM534 482v58h50v-540h-50v55c-37 -46 -110 -82 -196 -82c-172 0 -279 125 -279 299c0 165 112 294 288 294c76 0 151 -35 187 -84zM354 797
c-33 0 -59 -26 -59 -59s26 -58 59 -58c32 0 58 25 58 58s-26 59 -58 59zM354 846c59 0 108 -48 108 -108c0 -59 -49 -108 -108 -108c-61 0 -108 49 -108 108c0 60 47 108 108 108zM445 1021l15 -57l-206 -64l-15 30z" />
    <glyph glyph-name="atilde.ss01" horiz-adv-x="657" 
d="M347 516c-153 0 -237 -120 -237 -247c0 -113 74 -246 228 -246c115 0 174 62 196 114v264c-27 53 -82 115 -187 115zM534 482v58h50v-540h-50v55c-37 -46 -110 -82 -196 -82c-172 0 -279 125 -279 299c0 165 112 294 288 294c76 0 151 -35 187 -84zM490 732l44 -23
c-19 -38 -53 -66 -95 -73c-9 -2 -18 -2 -28 -2c-28 0 -57 9 -82 27c-19 15 -45 21 -70 16c-26 -5 -47 -23 -60 -47l-44 23c19 37 53 63 94 72c39 8 79 -2 110 -25c20 -15 46 -20 70 -15c26 5 49 22 61 47z" />
    <glyph glyph-name="y.ss01" horiz-adv-x="626" 
d="M500 169v371h51v-505c0 -186 -122 -296 -267 -296c-114 0 -178 63 -207 95l39 33c21 -24 71 -78 165 -78c140 0 219 109 219 234v36c-10 -24 -93 -85 -189 -85c-156 0 -235 84 -235 240v326h50v-335c0 -128 82 -181 182 -181c91 0 192 61 192 145z" />
    <glyph glyph-name="yacute.ss01" horiz-adv-x="626" 
d="M500 169v371h51v-505c0 -186 -122 -296 -267 -296c-114 0 -178 63 -207 95l39 33c21 -24 71 -78 165 -78c140 0 219 109 219 234v36c-10 -24 -93 -85 -189 -85c-156 0 -235 84 -235 240v326h50v-335c0 -128 82 -181 182 -181c91 0 192 61 192 145zM403 751l16 -57
l-207 -64l-14 30z" />
    <glyph glyph-name="ycircumflex.ss01" horiz-adv-x="626" 
d="M500 169v371h51v-505c0 -186 -122 -296 -267 -296c-114 0 -178 63 -207 95l39 33c21 -24 71 -78 165 -78c140 0 219 109 219 234v36c-10 -24 -93 -85 -189 -85c-156 0 -235 84 -235 240v326h50v-335c0 -128 82 -181 182 -181c91 0 192 61 192 145zM317 733l116 -66
l-19 -28l-97 40l-98 -40l-19 28z" />
    <glyph glyph-name="ydieresis.ss01" horiz-adv-x="626" 
d="M500 169v371h51v-505c0 -186 -122 -296 -267 -296c-114 0 -178 63 -207 95l39 33c21 -24 71 -78 165 -78c140 0 219 109 219 234v36c-10 -24 -93 -85 -189 -85c-156 0 -235 84 -235 240v326h50v-335c0 -128 82 -181 182 -181c91 0 192 61 192 145zM431 693v-63h-63v63h63
zM267 693v-63h-63v63h63z" />
    <glyph glyph-name="ygrave.ss01" horiz-adv-x="626" 
d="M500 169v371h51v-505c0 -186 -122 -296 -267 -296c-114 0 -178 63 -207 95l39 33c21 -24 71 -78 165 -78c140 0 219 109 219 234v36c-10 -24 -93 -85 -189 -85c-156 0 -235 84 -235 240v326h50v-335c0 -128 82 -181 182 -181c91 0 192 61 192 145zM223 751l205 -91
l-14 -30l-206 64z" />
    <glyph glyph-name="f_b.liga" horiz-adv-x="986" 
d="M660 23c161 0 228 133 228 246c0 127 -76 247 -228 247c-105 0 -169 -61 -196 -115v-264c22 -52 81 -114 196 -114zM660 566c176 0 278 -129 278 -294c0 -174 -111 -299 -278 -299c-86 0 -159 36 -196 82v-55h-50v697h-154c-84 0 -114 8 -114 -109v-48h101v-50h-101v-490
h-51v490h-54v50h54v44c0 113 30 163 118 163h251v-269c48 57 120 88 196 88z" />
    <glyph glyph-name="f_f.liga" horiz-adv-x="626" 
d="M596 738l-12 -47c-87 15 -118 16 -118 -103v-48h101v-50h-101v-490h-51v490h-269v-490h-51v490h-54v50h54v44c0 113 30 164 118 163c19 0 40 -4 63 -9l-12 -47c-87 15 -118 16 -118 -103v-48h269v44c0 113 30 164 118 163c19 0 40 -4 63 -9z" />
    <glyph glyph-name="f_f_b.liga" horiz-adv-x="1306" 
d="M980 23c161 0 228 133 228 246c0 127 -76 247 -228 247c-105 0 -169 -61 -196 -115v-264c22 -52 81 -114 196 -114zM980 566c176 0 278 -129 278 -294c0 -174 -111 -299 -278 -299c-86 0 -159 36 -196 82v-55h-50v697h-154c-84 0 -114 8 -114 -109v-48h101v-50h-101v-490
h-51v490h-269v-490h-51v490h-54v50h54v44c0 113 30 164 118 163c19 0 40 -4 63 -9l-12 -47c-87 15 -118 16 -118 -103v-48h269v44c0 113 30 163 118 163h251v-269c48 57 120 88 196 88z" />
    <glyph glyph-name="f_f_h.liga" horiz-adv-x="1266" 
d="M973 566c111 0 227 -52 227 -281v-285h-51v299c0 146 -60 217 -178 217c-100 0 -187 -65 -187 -186v-330h-50v697h-154c-84 0 -114 8 -114 -109v-48h101v-50h-101v-490h-51v490h-269v-490h-51v490h-54v50h54v44c0 113 30 164 118 163c19 0 40 -4 63 -9l-12 -47
c-87 15 -118 16 -118 -103v-48h269v44c0 113 30 163 118 163h251v-278c21 40 87 97 189 97z" />
    <glyph glyph-name="f_f_i.liga" horiz-adv-x="854" 
d="M466 540h307v-540h-50v490h-257v-490h-51v490h-269v-490h-51v490h-54v50h54v44c0 113 30 164 118 163c19 0 40 -4 63 -9l-12 -47c-87 15 -118 16 -118 -103v-48h269v44c0 113 30 164 118 163c19 0 40 -4 63 -9l-12 -47c-87 15 -118 16 -118 -103v-48z" />
    <glyph glyph-name="f_f_j.liga" horiz-adv-x="854" 
d="M466 540h307v-585c0 -146 -35 -225 -154 -216c-37 3 -55 13 -71 19l20 46c15 -7 28 -12 45 -13c77 -5 110 21 110 164v535h-257v-490h-51v490h-269v-490h-51v490h-54v50h54v44c0 113 30 164 118 163c19 0 40 -4 63 -9l-12 -47c-87 15 -118 16 -118 -103v-48h269v44
c0 113 30 164 118 163c19 0 40 -4 63 -9l-12 -47c-87 15 -118 16 -118 -103v-48z" />
    <glyph glyph-name="f_f_k.liga" horiz-adv-x="1192" 
d="M1084 540h74l-321 -266l321 -274h-74l-300 252v-252h-50v697h-154c-84 0 -114 8 -114 -109v-48h101v-50h-101v-490h-51v490h-269v-490h-51v490h-54v50h54v44c0 113 30 164 118 163c19 0 40 -4 63 -9l-12 -47c-87 15 -118 16 -118 -103v-48h269v44c0 113 30 163 118 163
h251v-454z" />
    <glyph glyph-name="f_h.liga" horiz-adv-x="945" 
d="M653 566c111 0 227 -52 227 -281v-285h-51v299c0 146 -60 217 -178 217c-100 0 -187 -65 -187 -186v-330h-50v697h-154c-84 0 -114 8 -114 -109v-48h101v-50h-101v-490h-51v490h-54v50h54v44c0 113 30 163 118 163h251v-278c21 40 87 97 189 97z" />
    <glyph glyph-name="f_i.liga" horiz-adv-x="529" 
d="M146 540h307v-540h-50v490h-257v-490h-51v490h-54v50h54v44c0 113 30 164 118 163c19 0 40 -4 63 -9l-12 -47c-87 15 -118 16 -118 -103v-48z" />
    <glyph glyph-name="f_j.liga" horiz-adv-x="529" 
d="M146 540h307v-585c0 -146 -35 -225 -154 -216c-37 3 -55 13 -71 19l20 46c15 -7 28 -12 45 -13c77 -5 110 21 110 164v535h-257v-490h-51v490h-54v50h54v44c0 113 30 164 118 163c19 0 40 -4 63 -9l-12 -47c-87 15 -118 16 -118 -103v-48z" />
    <glyph glyph-name="f_k.liga" horiz-adv-x="874" 
d="M764 540h74l-321 -266l321 -274h-74l-300 252v-252h-50v697h-154c-84 0 -114 8 -114 -109v-48h101v-50h-101v-490h-51v490h-54v50h54v44c0 113 30 163 118 163h251v-454z" />
    <glyph glyph-name="zero.osf" horiz-adv-x="624" 
d="M312 517c-140 0 -205 -125 -205 -247c0 -124 66 -247 205 -247c138 0 205 122 205 247c0 126 -67 247 -205 247zM312 567c156 0 255 -143 255 -297s-99 -297 -255 -297s-255 143 -255 297s99 297 255 297z" />
    <glyph glyph-name="one.osf" horiz-adv-x="378" 
d="M287 540v-540h-50v461l-142 -165l-36 33l178 211h50z" />
    <glyph glyph-name="two.osf" horiz-adv-x="572" 
d="M123 356l-49 7c0 116 90 204 215 204s215 -76 215 -193c0 -75 -59 -135 -148 -193l-203 -131h351v-50h-430v50l242 162c79 53 138 98 138 162c0 89 -67 143 -165 143c-97 0 -166 -63 -166 -161z" />
    <glyph glyph-name="three.osf" horiz-adv-x="576" 
d="M112 347l-51 9c0 117 91 211 225 211c141 0 223 -94 223 -211c0 -72 -54 -141 -123 -166c87 -26 136 -90 136 -172c0 -125 -91 -225 -232 -225c-138 0 -228 86 -236 211l50 9c4 -106 81 -170 182 -170c108 0 186 70 186 172c0 107 -102 149 -238 149l1 50
c138 0 223 55 223 151c0 79 -63 152 -172 152c-101 0 -174 -60 -174 -170z" />
    <glyph glyph-name="four.osf" 
d="M368 540l-261 -490h243v170h51v-170h138v-50h-138v-180h-51v180h-300v50l263 490h55z" />
    <glyph glyph-name="five.osf" horiz-adv-x="606" 
d="M500 540v-50h-326l-35 -255c0 -2 48 69 178 69c169 0 243 -138 243 -250c0 -144 -111 -261 -251 -261c-144 0 -250 108 -250 261h51c0 -109 69 -211 199 -211c115 0 200 99 200 214c0 107 -81 197 -197 197c-138 0 -185 -105 -185 -105h-51l54 391h370z" />
    <glyph glyph-name="six.osf" horiz-adv-x="615" 
d="M315 447c-114 0 -210 -92 -210 -212c0 -119 90 -212 210 -212c105 0 200 93 200 212c0 120 -86 212 -200 212zM483 747l6 -50c-28 -1 -126 -4 -197 -46c-90 -53 -143 -137 -170 -246c28 36 92 93 192 93c152 0 251 -118 251 -263c0 -144 -117 -262 -251 -262
c-145 0 -259 109 -259 271v1c0 238 88 355 166 420c87 72 215 82 262 82z" />
    <glyph glyph-name="seven.osf" horiz-adv-x="579" 
d="M526 490l-338 -670h-58l336 670h-398v50h458v-50z" />
    <glyph glyph-name="eight.osf" horiz-adv-x="609" 
d="M305 356c-124 0 -198 -74 -198 -166c0 -93 74 -167 198 -167c123 0 197 74 197 167c0 92 -74 166 -197 166zM305 697c-112 0 -176 -64 -176 -145c0 -80 64 -145 176 -145s176 65 176 145c0 81 -64 145 -176 145zM305 747c139 0 226 -87 226 -195c0 -72 -39 -135 -97 -169
c70 -36 119 -109 119 -193c0 -120 -98 -217 -248 -217c-151 0 -248 97 -248 217c0 84 48 157 119 193c-58 34 -98 97 -98 169c0 108 88 195 227 195z" />
    <glyph glyph-name="nine.osf" horiz-adv-x="615" 
d="M297 92c114 0 210 93 210 212s-90 212 -210 212c-105 0 -200 -93 -200 -212s86 -212 200 -212zM129 -208l-6 50c28 1 126 4 197 46c90 53 144 137 171 246c-29 -36 -93 -93 -193 -93c-152 0 -251 118 -251 263c0 144 117 262 251 262c145 0 259 -109 259 -271v-1
c0 -238 -88 -355 -166 -420c-87 -72 -215 -82 -262 -82z" />
    <glyph glyph-name="zero.subs" horiz-adv-x="360" 
d="M204 165c-24 0 -43 -15 -58 -41c-15 -27 -24 -65 -24 -110s8 -82 24 -111c14 -25 34 -41 58 -41c23 0 42 16 58 41c15 29 24 66 24 111s-8 83 -24 110c-15 26 -35 41 -58 41zM204 207c77 0 122 -86 122 -193s-45 -194 -122 -194c-78 0 -123 87 -123 194s45 193 123 193z
" />
    <glyph glyph-name="one.subs" horiz-adv-x="297" 
d="M223 180v-360h-45v288l-51 -61l-34 28l85 105h45z" />
    <glyph glyph-name="two.subs" horiz-adv-x="387" 
d="M148 97l-45 7c0 60 50 103 110 103s110 -40 110 -101c0 -36 -15 -68 -50 -107l-110 -120h160v-45h-220v45l133 145c30 32 42 55 42 82c0 36 -29 56 -65 56c-35 0 -65 -29 -65 -65z" />
    <glyph glyph-name="three.subs" horiz-adv-x="342" 
d="M125 97l-45 5c0 54 47 105 115 105c72 0 113 -51 113 -110c0 -31 -18 -65 -47 -77c39 -15 54 -55 54 -87c0 -58 -45 -113 -118 -113c-69 0 -116 43 -121 105l45 5c3 -48 42 -65 74 -65c43 0 75 28 75 61c0 53 -35 70 -106 70v45c71 0 99 18 99 61c0 35 -25 60 -68 60
c-32 0 -70 -19 -70 -65z" />
    <glyph glyph-name="four.subs" horiz-adv-x="378" 
d="M264 180l-129 -236h96v67h45v-67h62v-45h-62v-79h-45v79h-147v45l130 236h50z" />
    <glyph glyph-name="five.subs" horiz-adv-x="360" 
d="M304 180v-45h-148l-11 -93c0 -1 15 20 66 20c86 0 121 -69 121 -125c0 -72 -54 -130 -127 -130c-72 0 -126 54 -126 130h45c0 -44 31 -85 81 -85c46 0 82 39 82 86c0 44 -35 79 -80 79c-57 0 -78 -41 -78 -41l-43 4l28 200h190z" />
    <glyph glyph-name="six.subs" horiz-adv-x="360" 
d="M204 38c-48 0 -85 -39 -85 -87c0 -47 37 -86 85 -86c46 0 85 39 85 86c0 48 -33 87 -85 87zM289 207l6 -45s-46 3 -92 -20c-33 -16 -58 -52 -69 -83c14 13 38 24 70 24c80 0 130 -60 130 -132s-59 -131 -130 -131c-72 0 -130 55 -130 136v1c0 120 44 177 84 210
c43 36 107 40 131 40z" />
    <glyph glyph-name="seven.subs" horiz-adv-x="369" 
d="M326 135l-158 -315h-51l158 315h-181v45h232v-45z" />
    <glyph glyph-name="eight.subs" horiz-adv-x="360" 
d="M204 4c-48 0 -81 -30 -81 -71c0 -38 31 -68 81 -68c51 0 81 30 81 68c0 41 -30 71 -81 71zM204 163c-44 0 -70 -26 -70 -59c0 -31 26 -55 70 -55c45 0 70 24 70 55c0 33 -25 59 -70 59zM204 207c68 0 117 -48 117 -103c0 -33 -16 -60 -40 -79c29 -17 49 -55 49 -90
c0 -65 -52 -115 -126 -115c-73 0 -126 50 -126 115c0 35 20 73 49 90c-23 19 -39 46 -39 79c0 55 48 103 116 103z" />
    <glyph glyph-name="nine.subs" horiz-adv-x="360" 
d="M204 -10c48 0 85 38 85 87c0 47 -37 85 -85 85c-46 0 -85 -38 -85 -85c0 -49 33 -87 85 -87zM119 -180l-6 45s46 -2 92 21c33 16 58 52 69 83c-14 -14 -39 -24 -70 -24c-80 0 -130 59 -130 132c0 72 59 130 130 130c72 0 130 -54 130 -135v-1c0 -119 -45 -177 -84 -210
c-43 -36 -107 -41 -131 -41z" />
    <glyph glyph-name="zero.tf" horiz-adv-x="675" 
d="M338 697c-65 0 -112 -30 -148 -89c-37 -62 -57 -150 -57 -248s20 -186 57 -248c36 -59 83 -89 148 -89c66 0 113 30 148 89c38 62 57 150 57 248s-19 186 -57 248c-35 59 -82 89 -148 89zM338 747c165 0 255 -174 255 -387s-90 -387 -255 -387s-255 174 -255 387
s90 387 255 387z" />
    <glyph glyph-name="one.tf" horiz-adv-x="675" 
d="M416 720v-720h-51v641l-142 -165l-36 33l178 211h51z" />
    <glyph glyph-name="two.tf" horiz-adv-x="675" 
d="M172 536l-50 7c0 116 90 204 216 204c125 0 215 -76 215 -193c0 -75 -26 -124 -95 -202l-265 -302h360v-50h-431v50l297 333c63 71 83 107 83 171c0 89 -66 143 -164 143s-166 -63 -166 -161z" />
    <glyph glyph-name="three.tf" horiz-adv-x="675" 
d="M161 527l-50 9c0 117 91 211 225 211c140 0 222 -94 222 -211c0 -72 -54 -141 -122 -166c87 -26 136 -90 136 -172c0 -125 -91 -225 -233 -225c-137 0 -227 86 -235 211l49 9c5 -106 81 -170 183 -170c108 0 185 70 185 172c0 107 -102 149 -237 149v50
c138 0 224 55 224 151c0 79 -63 152 -172 152c-101 0 -175 -60 -175 -170z" />
    <glyph glyph-name="four.tf" horiz-adv-x="675" 
d="M423 720l-261 -490h243v170h50v-170h139v-50h-139v-180h-50v180h-300v50l263 490h55z" />
    <glyph glyph-name="five.tf" horiz-adv-x="675" 
d="M528 720v-50h-326l-35 -255c0 -2 48 69 178 69c169 0 243 -138 243 -250c0 -144 -111 -261 -251 -261c-144 0 -250 108 -250 261h51c0 -109 69 -211 199 -211c115 0 199 99 199 214c0 107 -81 197 -196 197c-138 0 -185 -105 -185 -105h-51l54 391h370z" />
    <glyph glyph-name="six.tf" horiz-adv-x="675" 
d="M343 447c-114 0 -210 -92 -210 -212c0 -119 90 -212 210 -212c105 0 200 93 200 212c0 120 -86 212 -200 212zM511 747l6 -50c-28 -1 -126 -4 -197 -46c-90 -53 -144 -137 -171 -246c29 36 93 93 193 93c152 0 251 -118 251 -263c0 -144 -117 -262 -251 -262
c-145 0 -259 109 -259 271v1c0 238 88 355 166 420c87 72 215 82 262 82z" />
    <glyph glyph-name="seven.tf" horiz-adv-x="675" 
d="M580 670l-338 -670h-58l336 670h-398v50h458v-50z" />
    <glyph glyph-name="eight.tf" horiz-adv-x="675" 
d="M338 356c-124 0 -198 -74 -198 -166c0 -93 74 -167 198 -167s198 74 198 167c0 92 -74 166 -198 166zM338 697c-112 0 -176 -64 -176 -145c0 -80 64 -145 176 -145s176 65 176 145c0 81 -64 145 -176 145zM338 747c139 0 226 -87 226 -195c0 -72 -38 -135 -97 -169
c70 -36 119 -109 119 -193c0 -120 -97 -217 -248 -217s-248 97 -248 217c0 84 49 157 120 193c-59 34 -98 97 -98 169c0 108 87 195 226 195z" />
    <glyph glyph-name="nine.tf" horiz-adv-x="675" 
d="M333 272c114 0 210 93 210 212s-90 212 -210 212c-105 0 -200 -93 -200 -212s86 -212 200 -212zM165 -28l-6 51c28 0 126 3 197 45c90 54 144 137 171 246c-29 -36 -93 -93 -193 -93c-152 0 -251 118 -251 263c0 144 117 262 251 262c145 0 259 -109 259 -271v-1
c0 -238 -88 -355 -166 -420c-87 -72 -215 -82 -262 -82z" />
    <glyph glyph-name="zero.zero" horiz-adv-x="624" 
d="M460 112c38 62 57 150 57 248c0 69 -9 133 -28 186l-329 -427c1 -3 3 -6 4 -7c36 -59 83 -89 148 -89c66 0 113 30 148 89zM164 608c-37 -62 -57 -150 -57 -248c0 -70 10 -136 30 -191l329 429l-6 10c-35 59 -82 89 -148 89c-65 0 -112 -30 -148 -89zM312 747
c165 0 255 -174 255 -387s-90 -387 -255 -387s-255 174 -255 387s90 387 255 387z" />
    <glyph glyph-name="zero.osf.zero" horiz-adv-x="624" 
d="M460 94c38 50 57 120 57 199c0 62 -12 119 -36 165l-292 -391c34 -29 78 -44 123 -44c57 0 113 24 148 71zM164 491c-37 -50 -57 -120 -57 -198c0 -72 17 -138 49 -188l296 396c-35 41 -87 61 -140 61c-56 0 -112 -24 -148 -71zM312 612c156 0 255 -143 255 -319
c0 -177 -99 -320 -255 -320s-255 143 -255 320c0 176 99 319 255 319z" />
    <glyph glyph-name="zero.tf.zero" horiz-adv-x="675" 
d="M486 112c38 62 57 150 57 248c0 69 -9 133 -28 186l-329 -427c1 -3 3 -6 4 -7c36 -59 83 -89 148 -89c66 0 113 30 148 89zM190 608c-37 -62 -57 -150 -57 -248c0 -70 10 -136 30 -191l329 429l-6 10c-35 59 -82 89 -148 89c-65 0 -112 -30 -148 -89zM338 747
c165 0 255 -174 255 -387s-90 -387 -255 -387s-255 174 -255 387s90 387 255 387z" />
    <glyph glyph-name="zero.dnom" horiz-adv-x="360" 
d="M181 318c-24 0 -43 -15 -58 -41c-15 -27 -24 -65 -24 -110s8 -82 24 -111c14 -25 34 -41 58 -41c23 0 42 16 58 41c15 29 24 66 24 111s-8 83 -24 110c-15 26 -35 41 -58 41zM181 360c77 0 122 -86 122 -193s-45 -194 -122 -194c-78 0 -123 87 -123 194s45 193 123 193z
" />
    <glyph glyph-name="one.dnom" horiz-adv-x="297" 
d="M200 360v-360h-45v288l-51 -61l-34 28l85 105h45z" />
    <glyph glyph-name="two.dnom" horiz-adv-x="387" 
d="M125 264l-45 6c0 60 50 104 110 104s110 -40 110 -101c0 -36 -15 -69 -50 -107l-110 -121h160v-45h-220v45l133 146c29 32 42 55 42 82c0 36 -29 56 -65 56c-35 0 -65 -29 -65 -65z" />
    <glyph glyph-name="three.dnom" horiz-adv-x="342" 
d="M102 250l-45 5c0 54 47 105 115 105c72 0 113 -51 113 -110c0 -31 -18 -65 -47 -77c39 -15 54 -55 54 -87c0 -58 -45 -113 -118 -113c-69 0 -116 43 -121 105l45 5c3 -48 42 -65 74 -65c43 0 75 28 75 61c0 53 -35 70 -106 70v45c71 0 99 18 99 61c0 35 -25 60 -68 60
c-32 0 -70 -19 -70 -65z" />
    <glyph glyph-name="four.dnom" horiz-adv-x="378" 
d="M241 360l-129 -236h96v67h45v-67h62v-45h-62v-79h-45v79h-147v45l130 236h50z" />
    <glyph glyph-name="five.dnom" horiz-adv-x="360" 
d="M281 347v-45h-148l-11 -93c0 -1 15 20 66 20c86 0 121 -70 121 -125c0 -72 -54 -131 -127 -131c-72 0 -126 54 -126 131h45c0 -45 31 -86 81 -86c46 0 82 40 82 86c0 45 -35 80 -80 80c-57 0 -78 -42 -78 -42l-43 5l28 200h190z" />
    <glyph glyph-name="six.dnom" horiz-adv-x="360" 
d="M181 191c-48 0 -85 -39 -85 -87c0 -47 37 -86 85 -86c46 0 85 39 85 86c0 48 -33 87 -85 87zM266 360l6 -45s-46 3 -92 -20c-33 -16 -58 -52 -69 -83c14 13 38 24 70 24c80 0 130 -60 130 -132s-59 -131 -130 -131c-72 0 -130 55 -130 136v1c0 120 44 177 84 210
c43 36 107 40 131 40z" />
    <glyph glyph-name="seven.dnom" horiz-adv-x="369" 
d="M303 315l-158 -315h-51l158 315h-181v45h232v-45z" />
    <glyph glyph-name="eight.dnom" horiz-adv-x="360" 
d="M181 157c-48 0 -81 -30 -81 -71c0 -38 31 -68 81 -68c51 0 81 30 81 68c0 41 -30 71 -81 71zM181 316c-44 0 -70 -26 -70 -59c0 -31 26 -55 70 -55c45 0 70 24 70 55c0 33 -25 59 -70 59zM181 360c68 0 117 -48 117 -103c0 -33 -16 -60 -40 -79c29 -17 49 -55 49 -90
c0 -65 -52 -115 -126 -115c-73 0 -126 50 -126 115c0 35 20 73 49 90c-23 19 -39 46 -39 79c0 55 48 103 116 103z" />
    <glyph glyph-name="nine.dnom" horiz-adv-x="360" 
d="M181 143c48 0 85 38 85 87c0 47 -37 85 -85 85c-46 0 -85 -38 -85 -85c0 -49 33 -87 85 -87zM96 -27l-6 45s46 -2 92 21c33 16 58 52 69 83c-14 -14 -39 -24 -70 -24c-80 0 -130 59 -130 132c0 72 59 130 130 130c72 0 130 -54 130 -135v-1c0 -119 -45 -177 -84 -210
c-43 -37 -107 -41 -131 -41z" />
    <glyph glyph-name="zero.numr" horiz-adv-x="360" 
d="M181 705c-24 0 -43 -15 -58 -41c-15 -27 -24 -65 -24 -110s8 -82 24 -111c14 -25 34 -41 58 -41c23 0 42 16 58 41c15 29 24 66 24 111s-8 83 -24 110c-15 26 -35 41 -58 41zM181 747c77 0 122 -86 122 -193s-45 -194 -122 -194c-78 0 -123 87 -123 194s45 193 123 193z
" />
    <glyph glyph-name="one.numr" horiz-adv-x="297" 
d="M200 720v-360h-45v288l-51 -61l-34 28l85 105h45z" />
    <glyph glyph-name="two.numr" horiz-adv-x="387" 
d="M125 637l-45 7c0 60 50 103 110 103s110 -40 110 -101c0 -36 -15 -68 -50 -107l-110 -120h160v-45h-220v45l133 145c30 32 42 55 42 82c0 36 -29 56 -65 56c-35 0 -65 -29 -65 -65z" />
    <glyph glyph-name="three.numr" horiz-adv-x="342" 
d="M102 637l-45 5c0 54 47 105 115 105c72 0 113 -51 113 -110c0 -31 -18 -65 -47 -77c39 -15 54 -55 54 -87c0 -58 -45 -113 -118 -113c-69 0 -116 43 -121 105l45 5c3 -48 42 -65 74 -65c43 0 75 28 75 61c0 53 -35 70 -106 70v45c71 0 99 18 99 61c0 35 -25 60 -68 60
c-32 0 -70 -19 -70 -65z" />
    <glyph glyph-name="four.numr" horiz-adv-x="378" 
d="M241 720l-129 -236h96v67h45v-67h62v-45h-62v-79h-45v79h-147v45l130 236h50z" />
    <glyph glyph-name="five.numr" horiz-adv-x="360" 
d="M281 720v-45h-148l-11 -93c0 -1 15 20 66 20c86 0 121 -69 121 -125c0 -72 -54 -130 -127 -130c-72 0 -126 54 -126 130h45c0 -44 31 -85 81 -85c46 0 82 39 82 86c0 44 -35 79 -80 79c-57 0 -78 -41 -78 -41l-43 4l28 200h190z" />
    <glyph glyph-name="six.numr" horiz-adv-x="360" 
d="M181 578c-48 0 -85 -39 -85 -87c0 -47 37 -86 85 -86c46 0 85 39 85 86c0 48 -33 87 -85 87zM266 747l6 -45s-46 3 -92 -20c-33 -16 -58 -52 -69 -83c14 13 38 24 70 24c80 0 130 -60 130 -132s-59 -131 -130 -131c-72 0 -130 55 -130 136v1c0 120 44 177 84 210
c43 36 107 40 131 40z" />
    <glyph glyph-name="seven.numr" horiz-adv-x="369" 
d="M303 675l-158 -315h-51l158 315h-181v45h232v-45z" />
    <glyph glyph-name="eight.numr" horiz-adv-x="360" 
d="M181 544c-48 0 -81 -30 -81 -71c0 -38 31 -68 81 -68c51 0 81 30 81 68c0 41 -30 71 -81 71zM181 703c-44 0 -70 -26 -70 -59c0 -31 26 -55 70 -55c45 0 70 24 70 55c0 33 -25 59 -70 59zM181 747c68 0 117 -48 117 -103c0 -33 -16 -60 -40 -79c29 -17 49 -55 49 -90
c0 -65 -52 -115 -126 -115c-73 0 -126 50 -126 115c0 35 20 73 49 90c-23 19 -39 46 -39 79c0 55 48 103 116 103z" />
    <glyph glyph-name="nine.numr" horiz-adv-x="360" 
d="M181 530c48 0 85 38 85 87c0 47 -37 85 -85 85c-46 0 -85 -38 -85 -85c0 -49 33 -87 85 -87zM96 360l-6 45s46 -2 92 21c33 16 58 52 69 83c-14 -14 -39 -24 -70 -24c-80 0 -130 59 -130 132c0 72 59 130 130 130c72 0 130 -54 130 -135v-1c0 -119 -45 -177 -84 -210
c-43 -36 -107 -41 -131 -41z" />
    <glyph glyph-name="uni2070" unicode="&#x2070;" horiz-adv-x="360" 
d="M181 781c-24 0 -43 -14 -58 -40c-15 -27 -24 -66 -24 -111c0 -44 8 -82 24 -111c14 -25 34 -40 58 -40c23 0 42 15 58 40c15 29 24 67 24 111c0 45 -8 84 -24 111c-15 26 -35 40 -58 40zM181 824c77 0 122 -87 122 -194c0 -106 -45 -193 -122 -193
c-78 0 -123 87 -123 193c0 107 45 194 123 194z" />
    <glyph glyph-name="uni2074" unicode="&#x2074;" horiz-adv-x="378" 
d="M241 810l-129 -236h96v67h45v-67h62v-45h-62v-79h-45v79h-147v45l130 236h50z" />
    <glyph glyph-name="uni2075" unicode="&#x2075;" horiz-adv-x="360" 
d="M281 810v-45h-148l-11 -93c0 -1 15 20 66 20c86 0 121 -69 121 -125c0 -72 -54 -130 -127 -130c-72 0 -126 54 -126 130h45c0 -44 31 -85 81 -85c46 0 82 39 82 86c0 44 -35 79 -80 79c-57 0 -78 -41 -78 -41l-43 4l28 200h190z" />
    <glyph glyph-name="uni2076" unicode="&#x2076;" horiz-adv-x="360" 
d="M181 654c-48 0 -85 -38 -85 -86s37 -86 85 -86c46 0 85 38 85 86s-33 86 -85 86zM266 824l6 -45s-46 2 -92 -20c-33 -16 -58 -52 -69 -84c14 14 38 24 70 24c80 0 130 -59 130 -131s-59 -131 -130 -131c-72 0 -130 54 -130 135v1c0 120 44 178 84 210
c43 36 107 41 131 41z" />
    <glyph glyph-name="uni2077" unicode="&#x2077;" horiz-adv-x="369" 
d="M303 765l-158 -315h-51l158 315h-181v45h232v-45z" />
    <glyph glyph-name="uni2078" unicode="&#x2078;" horiz-adv-x="360" 
d="M181 620c-48 0 -81 -30 -81 -70c0 -39 31 -68 81 -68c51 0 81 29 81 68c0 40 -30 70 -81 70zM181 779c-44 0 -70 -26 -70 -58s26 -56 70 -56c45 0 70 24 70 56s-25 58 -70 58zM181 824c68 0 117 -48 117 -103c0 -33 -16 -60 -40 -79c29 -17 49 -55 49 -90
c0 -65 -52 -115 -126 -115c-73 0 -126 50 -126 115c0 35 20 73 49 90c-23 19 -39 46 -39 79c0 55 48 103 116 103z" />
    <glyph glyph-name="uni2079" unicode="&#x2079;" horiz-adv-x="360" 
d="M181 607c48 0 85 37 85 86c0 48 -37 86 -85 86c-46 0 -85 -38 -85 -86c0 -49 33 -86 85 -86zM96 437l-6 45s46 -2 92 20c33 16 58 52 69 83c-14 -13 -39 -23 -70 -23c-80 0 -130 58 -130 131c0 72 59 131 130 131c72 0 130 -54 130 -135v-1c0 -119 -45 -178 -84 -210
c-43 -37 -107 -41 -131 -41z" />
    <glyph glyph-name="approxequal" unicode="&#x2248;" horiz-adv-x="532" 
d="M411 248l44 -22c-18 -38 -53 -65 -94 -73c-9 -2 -18 -3 -28 -3c-29 0 -58 9 -82 27c-20 16 -45 22 -70 17c-26 -5 -48 -23 -60 -47l-44 22c18 38 53 65 94 73c39 8 78 -2 110 -25c20 -14 46 -20 70 -15c26 6 49 22 60 46zM411 410l44 -23c-18 -38 -53 -65 -94 -73
c-9 -2 -18 -3 -28 -3c-29 0 -58 9 -82 27c-20 16 -45 22 -70 17c-26 -5 -48 -23 -60 -47l-44 22c18 38 53 65 94 73c39 8 78 -2 110 -25c20 -14 46 -20 70 -15c26 6 49 22 60 47z" />
    <glyph glyph-name="emptyset" unicode="&#x2205;" horiz-adv-x="23" 
 />
    <glyph glyph-name="greaterequal" unicode="&#x2265;" horiz-adv-x="711" 
d="M641 403v-50l-571 -227v55l501 198l-501 197v57zM70 0v50h571v-50h-571z" />
    <glyph glyph-name="infinity" unicode="&#x221e;" horiz-adv-x="734" 
d="M513 171c61 0 122 57 122 122c0 61 -61 121 -122 121s-121 -60 -121 -121c0 -65 60 -122 121 -122zM221 171c61 0 121 57 121 122c0 61 -60 121 -121 121c-62 0 -122 -60 -122 -121c0 -65 60 -122 122 -122zM513 463c86 0 171 -84 171 -170c0 -87 -85 -172 -171 -172
c-58 0 -115 38 -146 89c-32 -51 -89 -89 -146 -89c-87 0 -171 85 -171 172c0 86 84 170 171 170c57 0 114 -38 146 -89c31 51 88 89 146 89z" />
    <glyph glyph-name="integral" unicode="&#x222b;" horiz-adv-x="644" 
d="M297 -123v696c0 96 78 174 174 174c47 0 91 -24 123 -60l-39 -30c-23 26 -51 40 -84 40c-69 0 -124 -55 -124 -124v-696c0 -96 -78 -174 -174 -174c-47 0 -90 24 -123 60l38 30c24 -26 52 -40 85 -40c68 0 124 55 124 124z" />
    <glyph glyph-name="lessequal" unicode="&#x2264;" horiz-adv-x="711" 
d="M641 126l-571 227v50l571 230v-57l-501 -197l501 -198v-55zM70 50h571v-50h-571v50z" />
    <glyph glyph-name="notequal" unicode="&#x2260;" horiz-adv-x="639" 
d="M563 431v-50h-192l-51 -166h243v-50h-259l-50 -165h-51l52 165h-178v50h193l51 166h-244v50h260l50 163h50l-51 -163h177z" />
    <glyph glyph-name="partialdiff" unicode="&#x2202;" horiz-adv-x="624" 
d="M301 447c-115 0 -200 -92 -200 -212c0 -119 94 -212 200 -212c119 0 209 93 209 212c0 120 -95 212 -209 212zM127 697l5 50c48 0 176 -10 262 -82c79 -65 167 -182 167 -420v-1c0 -162 -115 -271 -259 -271c-135 0 -252 118 -252 262c0 145 99 263 252 263
c99 0 163 -57 192 -93c-27 109 -80 193 -170 246c-71 42 -169 45 -197 46z" />
    <glyph glyph-name="product" unicode="&#x220f;" horiz-adv-x="640" 
d="M77 720h486v-720h-51v670h-384v-670h-51v720z" />
    <glyph glyph-name="radical" unicode="&#x221a;" horiz-adv-x="828" 
d="M780 720v-49h-197l-273 -671h-51l-222 540h54l193 -468l265 648h231z" />
    <glyph glyph-name="summation" unicode="&#x2211;" horiz-adv-x="630" 
d="M584 720v-50h-480l238 -310l-238 -310h480v-50h-543v50l236 310l-236 310v50h543z" />
    <glyph glyph-name="arrowup" unicode="&#x2191;" horiz-adv-x="729" 
d="M566 378l-31 -32l-144 163v-509h-51v509l-146 -163l-31 32l177 202h51z" />
    <glyph glyph-name="arrowright" unicode="&#x2192;" horiz-adv-x="729" 
d="M453 88l-32 32l162 144h-508v50h508l-163 146l33 31l202 -177l-1 -50z" />
    <glyph glyph-name="arrowdown" unicode="&#x2193;" horiz-adv-x="729" 
d="M391 71l144 163l31 -32l-175 -202h-51l-177 202l31 32l146 -163v509h51v-509z" />
    <glyph glyph-name="arrowleft" unicode="&#x2190;" horiz-adv-x="729" 
d="M147 264l162 -144l-32 -32l-201 176l-1 50l202 177l33 -31l-163 -146h508v-50h-508z" />
    <glyph glyph-name="lozenge" unicode="&#x25ca;" 
d="M293 51l195 309l-195 309l-194 -309zM319 720l227 -360l-227 -360h-51l-228 360l228 360h51z" />
    </font>
</defs>
</svg>
